<svg xmlns="http://www.w3.org/2000/svg" width="138" height="36" fill="none"><path fill="#FF6042" d="M14.664 35.78C6.24 35.78.988 29.644.988 21.688S6.188 7.596 14.3 7.596c6.916 0 11.18 4.004 12.116 9.776H19.5c-.468-2.34-2.288-4.108-4.888-4.108-4.264 0-6.448 3.276-6.448 8.424 0 5.044 2.028 8.424 6.344 8.424 2.86 0 4.888-1.508 5.356-4.524h6.812c-.468 5.668-4.888 10.192-12.012 10.192ZM34.493 8.324v4.264h.156C36.26 9.572 38.08 8.012 41.2 8.012c.78 0 1.248.052 1.664.208v6.188h-.156c-4.628-.468-7.956 1.976-7.956 7.592v13H27.68V8.324h6.812ZM55.601 35.78c-8.84 0-13.832-6.188-13.832-14.144 0-7.904 5.356-14.04 13.156-14.04 8.58 0 13.156 6.552 13.156 16.068H48.737c.52 4.108 2.808 6.656 6.812 6.656 2.756 0 4.368-1.248 5.148-3.276h6.968c-.988 4.732-5.2 8.736-12.064 8.736Zm-.572-22.724c-3.744 0-5.564 2.236-6.188 5.72h11.856c-.208-3.38-2.444-5.72-5.668-5.72Z"/><path fill="#FF6042" d="M86.07 35c-.415-.52-.675-1.768-.831-2.964h-.104c-1.352 2.028-3.276 3.588-7.852 3.588-5.46 0-9.308-2.86-9.308-8.164 0-5.876 4.784-7.748 10.712-8.58 4.42-.624 6.448-.988 6.448-3.016 0-1.924-1.508-3.172-4.472-3.172-3.328 0-4.94 1.196-5.148 3.744h-6.292c.208-4.68 3.692-8.788 11.492-8.788 8.008 0 11.232 3.588 11.232 9.828v13.572c0 2.028.312 3.224.936 3.692V35H86.07ZM79 30.684c4.056 0 6.292-2.496 6.292-5.096v-4.004c-1.248.728-3.172 1.144-4.94 1.56-3.692.832-5.512 1.664-5.512 4.16 0 2.496 1.664 3.38 4.16 3.38Zm13.295-17.68v-4.68h3.692V.004h6.916v8.32h4.576v4.68h-4.576v14.144c0 1.976 1.092 2.652 2.652 2.652.884 0 2.08-.052 2.08-.052v5.2s-1.612.104-4.42.104c-3.432 0-7.228-1.352-7.228-6.396V13.004h-3.692Z"/><path fill="#FF6042" d="M121.318 35.78c-8.84 0-13.832-6.188-13.832-14.144 0-7.904 5.356-14.04 13.156-14.04 8.58 0 13.156 6.552 13.156 16.068h-19.344c.52 4.108 2.808 6.656 6.812 6.656 2.756 0 4.368-1.248 5.148-3.276h6.968c-.988 4.732-5.2 8.736-12.064 8.736Zm-.572-22.724c-3.744 0-5.564 2.236-6.188 5.72h11.856c-.208-3.38-2.444-5.72-5.668-5.72Zm13.145-3.21c-2.146 0-3.891-1.76-3.891-3.923C130 3.76 131.745 2 133.891 2c2.153 0 3.891 1.76 3.891 3.923 0 2.164-1.738 3.923-3.891 3.923Zm0-.97a2.935 2.935 0 0 0 2.928-2.953c0-1.631-1.31-2.952-2.928-2.952-1.618 0-2.928 1.32-2.928 2.952 0 1.631 1.31 2.952 2.928 2.952Zm-1.277-1.187a.1.1 0 0 1-.1-.1V4.176a.1.1 0 0 1 .1-.1h1.698c.515-.007 1.15.384 1.15 1.16 0 .458-.214.796-.503 1a.105.105 0 0 0-.035.135l.604 1.172a.1.1 0 0 1-.089.146h-.691a.1.1 0 0 1-.089-.055l-.56-1.116a.1.1 0 0 0-.089-.056h-.567a.1.1 0 0 0-.1.1V7.59a.1.1 0 0 1-.1.1h-.629Zm.729-1.947a.1.1 0 0 0 .1.1h.595c.227.007.522-.195.522-.606 0-.412-.301-.546-.515-.546h-.602a.1.1 0 0 0-.1.1v.952Z"/></svg>