<svg xmlns="http://www.w3.org/2000/svg" width="177" height="44" fill="none"><path fill="#fff" fill-rule="evenodd" d="M19.037 30.615a3.808 3.808 0 0 1 2.933-1.384h15.394c4.217 0 7.636-3.444 7.636-7.693v-3.846C45 13.444 41.581 10 37.364 10h-2.985a3.807 3.807 0 0 0-2.933 1.384l-2.483 3.001a3.807 3.807 0 0 1-2.933 1.384H10.636C6.42 15.77 3 19.213 3 23.462v3.846C3 31.556 6.419 35 10.636 35h2.985a3.807 3.807 0 0 0 2.933-1.384l2.483-3.001Zm20.236-12.923a1.916 1.916 0 0 0-1.91-1.923h-5.847a3.807 3.807 0 0 0-2.934 1.384L26.1 20.155a3.807 3.807 0 0 1-2.933 1.383h-12.53a1.916 1.916 0 0 0-1.909 1.924v3.846c0 1.062.855 1.923 1.91 1.923h5.847a3.807 3.807 0 0 0 2.934-1.384l2.483-3.002a3.807 3.807 0 0 1 2.933-1.383h12.53a1.916 1.916 0 0 0 1.909-1.924v-3.846Z" clip-rule="evenodd"/><path fill="#fff" d="M51 33.36v-22.4h4.96v17.76h12.096v4.64H51Z"/><path fill="#fff" d="M66.944 25.008c0-2.496.832-4.576 2.496-6.208 1.664-1.6 3.84-2.432 6.496-2.432 2.624 0 4.8.832 6.496 2.432 1.696 1.632 2.56 3.712 2.56 6.208s-.864 4.576-2.56 6.176c-1.696 1.632-3.872 2.432-6.496 2.432-2.592 0-4.736-.8-6.432-2.432-1.728-1.6-2.56-3.68-2.56-6.176Zm4.8 0c0 1.248.384 2.272 1.152 3.072.768.832 1.792 1.216 3.04 1.216 1.28 0 2.304-.384 3.072-1.152.768-.768 1.184-1.792 1.184-3.136 0-1.312-.416-2.368-1.216-3.136-.832-.768-1.824-1.184-3.04-1.184s-2.24.384-3.008 1.152c-.8.768-1.184 1.824-1.184 3.168Zm30-8.288v15.2c0 2.72-.704 4.768-2.08 6.112-1.376 1.344-3.328 2.016-5.824 2.016-1.952 0-3.584-.384-4.928-1.184-1.344-.8-2.272-1.92-2.816-3.392l4.064-1.696c.672 1.312 1.76 1.952 3.232 1.952 2.464 0 3.712-.96 3.712-2.88v-.736c-.704 1.024-1.952 1.504-3.744 1.504-2.432 0-4.384-.736-5.856-2.24-1.472-1.472-2.208-3.616-2.208-6.368 0-2.56.8-4.64 2.4-6.176 1.6-1.536 3.488-2.336 5.664-2.336 1.632 0 2.88.32 3.744.896v-.672h4.64ZM94.16 29.296c.704 0 1.312-.16 1.824-.512s.896-.8 1.12-1.344v-5.536c-.608-.704-1.6-1.088-2.976-1.088-1.184 0-2.144.384-2.912 1.12-.768.736-1.12 1.792-1.12 3.136 0 1.376.352 2.432 1.056 3.136.704.736 1.728 1.088 3.008 1.088Zm9.795 4.064V16.72h4.641v16.64h-4.641Zm-.288-21.056c0-.64.224-1.184.736-1.632.48-.448 1.121-.672 1.889-.672.736 0 1.343.224 1.855.672.48.448.736.992.736 1.632 0 .704-.256 1.248-.736 1.696-.512.448-1.119.672-1.855.672-.832 0-1.473-.192-1.921-.64-.48-.448-.704-1.024-.704-1.728ZM119.953 28.4c0-.256-.352-.512-.992-.768-.64-.224-1.44-.48-2.336-.736a23.909 23.909 0 0 1-2.784-.96c-.928-.384-1.728-.928-2.368-1.696-.64-.768-.96-1.664-.96-2.72 0-1.6.608-2.848 1.888-3.776 1.28-.896 3.04-1.376 5.28-1.376 1.504 0 2.88.32 4.16.896 1.28.576 2.176 1.28 2.752 2.112l-3.168 3.04c-1.12-1.152-2.688-1.728-4.672-1.728-.96 0-1.44.288-1.44.8 0 .256.32.512.96.704.64.192 1.44.416 2.368.672.896.256 1.824.544 2.752.928a6.135 6.135 0 0 1 2.368 1.76c.64.8.992 1.728.992 2.816 0 1.728-.672 3.04-2.016 3.936-1.344.896-3.008 1.312-5.024 1.312-1.92 0-3.584-.352-4.96-1.12-1.376-.768-2.368-1.728-3.008-2.912l3.68-2.496c.448.64 1.12 1.152 2.016 1.568.864.448 1.792.64 2.784.64 1.152 0 1.728-.288 1.728-.896Z"/><path fill="#fff" d="m142.58 16.72-9.376 23.04h-5.024l3.424-7.808-7.968-15.232h5.408l4.832 9.664 3.744-9.664h4.96Z"/><path fill="#fff" d="M142.569 33.36V16.72h4.64v1.184c.832-.992 2.336-1.504 4.544-1.504 2.176 0 3.808.64 4.896 1.856 1.088 1.216 1.664 3.136 1.664 5.76v9.344h-4.64v-9.056c0-1.28-.288-2.208-.8-2.752-.512-.544-1.344-.832-2.464-.832-1.536 0-2.624.736-3.2 2.208V33.36h-4.64Zm29.86-6.24 3.392 2.016c-.768 1.472-1.791 2.56-3.135 3.328-1.344.768-2.785 1.152-4.385 1.152-2.72 0-4.895-.768-6.559-2.336-1.664-1.568-2.465-3.648-2.465-6.272 0-2.496.801-4.544 2.465-6.176 1.632-1.632 3.743-2.464 6.335-2.464 1.888 0 3.489.384 4.801 1.152 1.312.768 2.239 1.76 2.815 3.008l-3.456 2.24c-1.024-1.376-2.335-2.08-3.871-2.08-1.28 0-2.337.416-3.105 1.184-.8.8-1.184 1.856-1.184 3.136 0 1.216.416 2.208 1.312 3.04.864.832 2.016 1.248 3.424 1.248 1.536 0 2.72-.704 3.616-2.176Z"/></svg>