<svg xmlns="http://www.w3.org/2000/svg" width="182" height="44" fill="none"><g fill="#fff" opacity=".84"><path d="M35.017 11H0l5.002 8.8h30.015c5.525 0 10.005 3.94 10.005 8.8 0 4.86-4.48 8.8-10.005 8.8 8.288 0 15.007-5.91 15.007-13.2 0-7.29-6.719-13.2-15.007-13.2Z"/><path d="M23.629 34.968c-1.663-2.926.756-6.368 4.474-6.368h6.913c2.763 0 5.003 1.97 5.003 4.4 0 2.43-2.24 4.4-5.003 4.4h-6.913c-1.895 0-3.627-.942-4.474-2.432Z" opacity=".3"/><path d="M35.018 19.8H10.006l5.002 8.8h20.01c2.762 0 5.002 1.97 5.002 4.4 0 2.43-2.24 4.4-5.002 4.4 5.525 0 10.005-3.94 10.005-8.8 0-4.86-4.48-8.8-10.005-8.8Z" opacity=".6"/></g><path fill="#fff" d="M73.258 12.266h6.172V35h-6.015V23.797h-.094l-3.813 7.094h-3.874l-3.829-7.125h-.078V35h-6.015V12.266h6.156L67.524 23.5h.125l5.61-11.234Zm16.228 23.062c-1.672 0-3.156-.328-4.469-1.016-1.312-.687-2.328-1.64-3.047-2.89-.718-1.235-1.078-2.656-1.078-4.25 0-1.594.36-3 1.078-4.25.72-1.235 1.735-2.203 3.047-2.89C86.33 19.343 87.814 19 89.486 19c1.656 0 3.14.344 4.453 1.031a7.648 7.648 0 0 1 3.047 2.89c.719 1.25 1.094 2.657 1.094 4.25 0 1.595-.375 3.017-1.094 4.25-.734 1.25-1.75 2.204-3.047 2.892-1.312.687-2.797 1.015-4.453 1.015Zm0-5.047c.813 0 1.484-.281 2.031-.875.532-.593.813-1.328.813-2.234 0-.906-.266-1.656-.797-2.235-.531-.578-1.219-.875-2.047-.875-.406 0-.797.079-1.14.235a2.72 2.72 0 0 0-.907.64c-.25.282-.453.61-.594.985a3.69 3.69 0 0 0-.203 1.25c0 .36.047.703.14 1.015.095.329.22.61.392.86.171.25.374.469.609.656.234.188.5.344.781.438.281.093.594.14.922.14ZM109.463 19c.547 0 1.047.047 1.516.14.469.094.906.235 1.344.422a4.08 4.08 0 0 1 1.125.797c.312.344.594.75.844 1.22.234.468.421 1.046.546 1.702.125.657.188 1.407.188 2.235V35h-5.719v-8.11c0-.718-.078-1.296-.234-1.718-.156-.406-.375-.703-.656-.86-.282-.156-.672-.25-1.157-.25-.718 0-1.265.266-1.672.766-.406.5-.609 1.266-.609 2.297V35H99.26V19.328h5.719v1.719h.031a5.64 5.64 0 0 1 2.016-1.516 5.898 5.898 0 0 1 2.437-.531Zm15.197 16.328c-1.672 0-3.157-.328-4.469-1.016-1.313-.687-2.328-1.64-3.047-2.89-.719-1.235-1.078-2.656-1.078-4.25 0-1.594.359-3 1.078-4.25.719-1.235 1.734-2.203 3.047-2.89 1.312-.688 2.797-1.032 4.469-1.032 1.656 0 3.14.344 4.453 1.031a7.652 7.652 0 0 1 3.047 2.89c.718 1.25 1.093 2.657 1.093 4.25 0 1.595-.375 3.017-1.093 4.25-.735 1.25-1.75 2.204-3.047 2.892-1.313.687-2.797 1.015-4.453 1.015Zm0-5.047c.812 0 1.484-.281 2.031-.875.531-.593.812-1.328.812-2.234 0-.906-.265-1.656-.796-2.235-.532-.578-1.219-.875-2.047-.875-.407 0-.797.079-1.141.235a2.723 2.723 0 0 0-.906.64c-.25.282-.453.61-.594.985a3.67 3.67 0 0 0-.203 1.25c0 .36.047.703.141 1.015a2.866 2.866 0 0 0 1 1.516c.234.188.5.344.781.438.281.093.594.14.922.14ZM134.575 35V11.437h5.703V35h-5.703Zm10.712-17.453c-.969 0-1.75-.281-2.36-.875-.625-.594-.922-1.328-.922-2.219 0-.562.125-1.062.407-1.531.281-.469.671-.828 1.171-1.11a3.611 3.611 0 0 1 1.704-.406c.953 0 1.734.297 2.359.875.609.578.922 1.297.922 2.172 0 .906-.313 1.64-.922 2.219-.625.594-1.406.875-2.359.875ZM142.427 35V19.328h5.703V35h-5.703Zm13.04.328c-.687 0-1.312-.094-1.875-.312a4.25 4.25 0 0 1-1.484-.953c-.422-.422-.75-.97-.985-1.657-.25-.672-.359-1.453-.359-2.328V23.86h-1.703v-4.53h1.703v-4.923l5.703-.594v5.516h3.406v4.531h-3.406v4.985c0 .218 0 .422.031.578.016.156.063.328.125.484a.71.71 0 0 0 .313.39c.156.095.344.142.562.142.407 0 .782-.079 1.157-.25l1.39 3.984c-.687.39-1.359.687-2.015.875-.672.187-1.532.281-2.563.281ZM171.632 19c.547 0 1.047.047 1.516.14.469.094.906.235 1.344.422a4.11 4.11 0 0 1 1.125.797c.312.344.593.75.843 1.22.235.468.422 1.046.547 1.702.125.657.188 1.407.188 2.235V35h-5.719v-8.11c0-.734-.078-1.312-.234-1.718-.157-.406-.375-.703-.688-.86-.312-.156-.75-.25-1.281-.25-.719 0-1.266.266-1.672.766-.406.5-.609 1.266-.609 2.297V35h-5.719V11.437h5.719v9.626h.046a5.787 5.787 0 0 1 1.329-1.141c.484-.313 1-.531 1.546-.688a6.253 6.253 0 0 1 1.719-.234Zm6.377-8a3.014 3.014 0 0 1 2.131.891c.263.27.472.59.628.958.152.368.232.754.232 1.153 0 .4-.08.785-.236 1.153a3.028 3.028 0 0 1-.633.958c-.268.27-.584.488-.959.648a2.97 2.97 0 0 1-1.181.239 2.94 2.94 0 0 1-1.177-.24 2.913 2.913 0 0 1-.949-.643 2.916 2.916 0 0 1-.633-.957 2.934 2.934 0 0 1-.232-1.158c0-.399.076-.78.232-1.148.156-.368.365-.688.633-.963a2.96 2.96 0 0 1 .958-.647 2.99 2.99 0 0 1 1.186-.244Zm-.018 5.051a1.99 1.99 0 0 0 1.039-.275c.312-.186.557-.434.735-.745.174-.31.263-.656.263-1.029 0-.28-.053-.545-.156-.798a2.1 2.1 0 0 0-.423-.648 2 2 0 0 0-.647-.434 2.018 2.018 0 0 0-.798-.164 2.01 2.01 0 0 0-1.778 1.029 2.048 2.048 0 0 0-.263 1.028c0 .373.085.719.263 1.03.174.31.419.558.731.736.312.181.655.27 1.034.27Zm1.199-2.474c0 .425-.165.718-.495.877l.642.998h-.958l-.522-.864h-.142v.864h-.82v-2.94h1.203c.361 0 .633.098.816.293.183.195.276.452.276.771Zm-1.475-.324v.607h.196a.496.496 0 0 0 .29-.075.258.258 0 0 0 .111-.226.28.28 0 0 0-.107-.217.473.473 0 0 0-.303-.09h-.187Z"/></svg>