<svg xmlns="http://www.w3.org/2000/svg" width="140" height="44" fill="none"><path fill="#fff" d="M16.928 17.328v16.48h-4.032v-1.76c-1.28 1.344-3.04 2.112-5.056 2.112-4.288 0-7.84-3.712-7.84-8.576 0-4.896 3.552-8.608 7.84-8.608 2.016 0 3.776.768 5.056 2.112v-1.76h4.032Zm-4.224 8.288c0-2.624-1.888-4.736-4.224-4.736-2.336 0-4.224 2.048-4.224 4.736 0 2.624 1.888 4.64 4.224 4.64 2.336 0 4.224-2.08 4.224-4.64Zm21.606-8.288v16.48h-4.03v-1.504c-1.024 1.184-2.464 1.888-4.192 1.888-3.904 0-6.496-2.912-6.496-7.232v-9.632h4.224v9.632c0 .928.32 3.232 3.072 3.232 1.888 0 3.2-1.408 3.2-3.232v-9.632h4.224Zm17.606 6.848v.832h-4.224v-.832c0-.96-.288-3.264-3.072-3.264-1.888 0-3.2 1.408-3.2 3.264v9.632h-4.224v-16.48h4.032v1.6c1.056-1.248 2.496-2.016 4.256-2.016 3.872 0 6.432 2.912 6.432 7.264Zm17.659 3.04H57.127c.544 2.016 2.144 3.264 4.128 3.264 1.408 0 2.784-.608 3.488-1.92h4.512c-.96 3.36-3.872 5.632-7.968 5.632-4.64 0-8.448-3.84-8.448-8.608 0-4.768 3.808-8.672 8.448-8.672 4.864 0 8.896 3.776 8.288 10.304ZM57.19 23.76h8.192c-.512-1.92-2.112-3.136-4.128-3.136-1.92 0-3.456 1.216-4.064 3.136ZM75.877 10v23.808h-4.224V10h4.224Zm7.259 1.6v3.936h-4.224V11.6h4.224Zm0 5.728v16.48h-4.224v-16.48h4.224Zm16.921 11.296c0 3.264-3.008 5.568-7.231 5.568-4.192 0-7.296-2.208-7.808-5.76h4.287c.576 1.408 2.272 1.92 3.52 1.92 1.697 0 2.977-.512 2.977-1.472 0-.928-.577-1.312-3.457-1.76-2.944-.448-6.88-1.248-6.88-4.928 0-2.592 2.272-5.28 7.04-5.28 3.776 0 6.593 2.048 7.136 5.152h-4.384c-.256-.768-1.184-1.376-2.752-1.376-1.951 0-2.751.704-2.751 1.312 0 .864 1.215 1.152 3.263 1.472 4.097.672 7.04 1.568 7.04 5.152Z"/><path stroke="#fff" stroke-width="1.3" d="M104.5 1v4.635c0 1.023-1.254 1.515-1.949.766L99.625 3.25M112 8.5h-4.635c-1.023 0-1.515-1.254-.766-1.95l3.151-2.925M104.5 16v-4.635c0-1.023 1.254-1.515 1.949-.766l2.926 3.151M97 8.5h4.635c1.023 0 1.515 1.254.766 1.95l-3.151 2.925"/><path fill="#fff" d="M111.552 18.196c1.572 0 2.7 1.188 2.7 2.844 0 1.644-1.128 2.856-2.7 2.856-.936 0-1.632-.432-2.052-1.092v.996h-.864V16h.864v3.276c.42-.66 1.116-1.08 2.052-1.08Zm-.108 4.872c1.176 0 1.956-.852 1.956-2.028 0-1.176-.78-2.016-1.956-2.016s-1.944.84-1.944 2.016c0 1.176.768 2.028 1.944 2.028Zm6.337-4.884c1.584 0 2.64 1.212 2.64 2.856v.276h-4.524c.108 1.104.864 1.836 1.956 1.836.816 0 1.38-.372 1.692-.84l.612.444c-.48.708-1.296 1.152-2.304 1.152-1.68 0-2.796-1.224-2.796-2.868s1.068-2.856 2.724-2.856Zm0 .72c-1.08 0-1.764.732-1.884 1.812h3.72c-.12-1.044-.804-1.812-1.836-1.812Zm8.196-.624h.876v5.52h-.876v-.996c-.42.66-1.116 1.092-2.052 1.092-1.572 0-2.688-1.212-2.688-2.856 0-1.656 1.116-2.844 2.688-2.844.936 0 1.632.42 2.052 1.08v-.996Zm-1.944 4.788c1.188 0 1.944-.852 1.944-2.028 0-1.176-.756-2.016-1.944-2.016-1.176 0-1.956.84-1.956 2.016 0 1.176.78 2.028 1.956 2.028Zm8.197-3.288c-.312-.432-.828-.756-1.584-.756-1.188 0-1.968.84-1.968 2.016 0 1.176.78 2.028 1.968 2.028.756 0 1.26-.324 1.584-.756l.636.468c-.48.696-1.272 1.116-2.244 1.116-1.656 0-2.796-1.2-2.796-2.856s1.14-2.844 2.796-2.844c.972 0 1.764.42 2.244 1.104l-.636.48Zm4.137-1.584c1.104 0 2.196.648 2.196 2.208V23.8h-.864v-3.276c0-1.056-.744-1.572-1.56-1.572-.828 0-1.548.516-1.548 1.572V23.8h-.864V16h.864v3.024c.42-.576 1.092-.828 1.776-.828ZM109.5 28.3c.42-.756 1.164-1.092 1.944-1.104v.828c-.852.012-1.944.456-1.944 1.8V32.8h-.864v-5.52h.864v1.02Zm4.871-1.116c1.584 0 2.64 1.212 2.64 2.856v.276h-4.524c.108 1.104.864 1.836 1.956 1.836.816 0 1.38-.372 1.692-.84l.612.444c-.48.708-1.296 1.152-2.304 1.152-1.68 0-2.796-1.224-2.796-2.868s1.068-2.856 2.724-2.856Zm0 .72c-1.08 0-1.764.732-1.884 1.812h3.72c-.12-1.044-.804-1.812-1.836-1.812Zm3.218 3.756.624-.372c.18.492.852.936 1.716.936.852 0 1.296-.312 1.296-.936 0-.696-.996-.852-1.512-.996-.516-.144-1.92-.408-1.92-1.56 0-1.032.888-1.56 2.088-1.56 1.116 0 1.884.492 2.124 1.092l-.612.36c-.156-.396-.78-.756-1.536-.756-.78 0-1.212.312-1.212.828 0 .648.912.792 1.428.936.516.144 1.992.444 1.992 1.632 0 1.104-.78 1.68-2.148 1.68-1.248 0-2.052-.552-2.328-1.284Zm7.982 1.248c-1.656 0-2.808-1.224-2.808-2.868 0-1.656 1.152-2.856 2.808-2.856s2.808 1.2 2.808 2.856c0 1.644-1.152 2.868-2.808 2.868Zm0-.84c1.164 0 1.932-.864 1.932-2.028 0-1.164-.768-2.016-1.932-2.016s-1.944.852-1.944 2.016c0 1.164.78 2.028 1.944 2.028Zm4.649-3.768c.42-.756 1.164-1.092 1.944-1.104v.828c-.852.012-1.944.456-1.944 1.8V32.8h-.864v-5.52h.864v1.02Zm5.341-.336h-1.32v3.396c0 .588.36.732.768.732h.492v.708h-.804c-.84 0-1.332-.48-1.332-1.32v-3.516h-.768v-.684h.768V25.6h.876v1.68h1.32v.684Z"/></svg>