<svg xmlns="http://www.w3.org/2000/svg" width="158" height="44" fill="none"><path fill="#fff" d="M26.75 9A3.25 3.25 0 0 1 30 12.25v6.5A3.25 3.25 0 0 1 26.75 22h-6.5A3.25 3.25 0 0 0 17 25.242v6.508A3.25 3.25 0 0 1 13.75 35h-6.5A3.25 3.25 0 0 1 4 31.75v-6.5A3.25 3.25 0 0 1 7.25 22h6.527A3.25 3.25 0 0 0 17 18.75v-6.5A3.25 3.25 0 0 1 20.25 9h6.5Z" opacity=".84"/><path fill="#fff" d="M34.736 33V10.6H42.8c3.968 0 6.976 1.856 6.976 5.984 0 2.112-.832 4.032-2.144 4.864 1.536.704 2.592 2.496 2.592 4.864 0 4.032-2.784 6.688-7.328 6.688h-8.16Zm5.408-4.896h2.176c1.632 0 2.496-.896 2.496-2.304 0-1.44-.992-2.144-2.592-2.144h-2.08v4.448Zm0-8.608h1.92c1.312 0 2.304-.704 2.304-1.984s-.896-2.016-2.08-2.016h-2.144v4ZM51.173 33V9h4.768v24h-4.768Zm12.81.32c-4.095 0-6.944-3.552-6.944-8.32 0-4.768 2.849-8.32 6.944-8.32 1.633 0 2.849.64 3.745 1.632V17h4.576v16h-4.576v-1.344c-.896 1.024-2.112 1.664-3.744 1.664ZM61.84 25c0 2.624 1.311 4.192 2.911 4.192 1.569 0 2.977-1.344 2.977-4.224 0-2.784-1.408-4.16-2.977-4.16-1.6 0-2.912 1.536-2.912 4.192Zm11.512 0c0-4.992 3.36-8.32 8.224-8.32 1.888 0 3.072.384 4.128.96v4.928c-.8-.928-2.048-1.44-3.52-1.44-2.24 0-3.84 1.728-3.84 3.872s1.6 3.872 3.84 3.872c1.504 0 2.72-.48 3.52-1.44v4.96c-1.056.576-2.304.928-4.128.928-4.864 0-8.224-3.328-8.224-8.32Zm13.665 8V9h4.768v13.888L96.265 17h5.728l-5.248 6.496L102.377 33h-5.472l-3.296-5.664-1.824 2.24V33h-4.768Z"/><path fill="#fff" d="m104.784 33-3.776-16h5.632l1.856 10.784.128.672h.032l.192-1.92L110.48 17h5.504l1.888 10.784.128.672h.032l.16-1.92L119.824 17h5.664l-3.808 16h-6.816l-1.632-9.568L111.6 33h-6.816Zm20.443-7.968c0-5.248 3.04-8.32 7.392-8.32 4.576 0 7.488 3.424 7.296 9.44h-9.568c.288 1.664 2.016 2.72 4.256 2.72 2.112 0 3.552-.8 4.416-1.76v4.672c-1.28.992-3.232 1.568-5.312 1.568-5.344-.032-8.48-3.264-8.48-8.32Zm5.152-1.504h4.48c-.32-1.568-1.12-2.368-2.272-2.368-1.152 0-1.92.96-2.208 2.368ZM140.892 33V9h4.768v24h-4.768Zm6.282 0V9h4.768v24h-4.768ZM154 10.73c0-.476.169-.887.513-1.224A1.697 1.697 0 0 1 155.759 9c.477 0 .887.176 1.232.513.337.337.513.748.513 1.217 0 .491-.176.909-.513 1.246a1.7 1.7 0 0 1-1.232.506c-.491 0-.909-.168-1.246-.506A1.678 1.678 0 0 1 154 10.73Zm.308.007c0 .403.139.74.418 1.02a1.4 1.4 0 0 0 1.026.417c.396 0 .733-.14 1.019-.425.279-.279.425-.616.425-1.012s-.146-.733-.425-1.011a1.413 1.413 0 0 0-1.019-.425 1.4 1.4 0 0 0-1.019.425 1.356 1.356 0 0 0-.425 1.011Zm1.092 1.012h-.344V9.674h.652c.528 0 .799.213.799.63a.587.587 0 0 1-.125.375.726.726 0 0 1-.329.22l.601.85h-.411l-.528-.762h-.315v.762Zm.733-1.408c0-.139-.036-.234-.11-.293-.073-.058-.183-.088-.33-.088h-.293v.733h.323c.102 0 .19-.029.278-.095a.292.292 0 0 0 .132-.257Z"/></svg>