<svg xmlns="http://www.w3.org/2000/svg" width="46" height="21" fill="none"><path fill="#fff" d="M42 10.4A6.4 6.4 0 0 0 35.6 4c-1.844 0-3.61.782-5.478 2.213-1.89 1.448-3.694 3.407-5.647 5.538-1.897 2.069-3.943 4.31-6.165 6.012-2.245 1.719-4.854 3.037-7.91 3.037C4.656 20.8 0 16.144 0 10.4 0 4.656 4.656 0 10.4 0c3.976 0 7.207 2.233 9.9 4.734a2 2 0 0 1-2.72 2.931C15.081 5.345 12.81 4 10.4 4a6.4 6.4 0 1 0 0 12.8c1.844 0 3.61-.783 5.478-2.213 1.89-1.448 3.694-3.407 5.647-5.538 1.897-2.069 3.943-4.31 6.165-6.012C29.935 1.317 32.544 0 35.6 0 41.344 0 46 4.656 46 10.4c0 5.744-4.656 10.4-10.4 10.4-3.98 0-7.212-2.232-9.903-4.736a2 2 0 0 1 2.725-2.928c2.492 2.318 4.762 3.664 7.178 3.664a6.4 6.4 0 0 0 6.4-6.4Z"/></svg>