<svg xmlns="http://www.w3.org/2000/svg" width="176" height="44" fill="none"><g fill="#fff" opacity=".84"><path d="M23.909 31.622c-4.63 2.938-10.836 2.387-14.875-1.652-4.038-4.039-4.59-10.245-1.652-14.874l-3.974-3.974c-5.058 6.85-4.486 16.552 1.718 22.756 6.204 6.204 15.907 6.777 22.757 1.718l-3.974-3.974Zm-12.814-20.24c4.63-2.937 10.836-2.387 14.875 1.652 4.039 4.04 4.59 10.245 1.652 14.875l3.974 3.974c5.058-6.85 4.486-16.553-1.718-22.757C23.674 2.922 13.97 2.35 7.12 7.408l3.973 3.974Z"/><path d="M25.97 13.035c-4.04-4.04-10.246-4.59-14.876-1.652L9.103 9.39a14.83 14.83 0 0 0-3.713 3.713l1.992 1.991c-2.937 4.63-2.387 10.836 1.652 14.875 4.039 4.038 10.245 4.59 14.874 1.652l1.996 1.995a14.822 14.822 0 0 0 3.713-3.712L27.62 27.91c2.938-4.63 2.387-10.837-1.652-14.875Z" opacity=".2"/></g><path fill="#fff" d="m70.076 10.96-6.624 22.4H59.42l-4.768-13.568-4.64 13.568H45.98l-6.976-22.4h5.12l4.096 13.504L52.7 10.96h3.968l4.576 13.408 3.904-13.408h4.928Zm11.296 16.512 2.784 2.816c-1.792 2.24-4.16 3.328-7.168 3.328-2.72 0-4.896-.768-6.528-2.336-1.664-1.568-2.464-3.648-2.464-6.272 0-2.496.736-4.576 2.272-6.208 1.504-1.6 3.616-2.432 6.368-2.432 2.304 0 4.192.704 5.696 2.112 1.472 1.408 2.24 3.264 2.24 5.536 0 .704-.096 1.6-.256 2.688H72.86c.416 1.728 1.824 2.592 4.192 2.592.832 0 1.632-.16 2.432-.48.768-.32 1.408-.768 1.888-1.344Zm-4.896-6.944c-1.792 0-2.944.736-3.52 2.176h6.816c-.384-1.44-1.504-2.176-3.296-2.176ZM85.68 33.36V16.72h4.64v1.184c.832-.992 2.336-1.504 4.544-1.504 2.176 0 3.808.64 4.896 1.856 1.088 1.216 1.664 3.136 1.664 5.76v9.344h-4.64v-9.056c0-1.28-.288-2.208-.8-2.752-.512-.544-1.344-.832-2.464-.832-1.536 0-2.624.736-3.2 2.208V33.36h-4.64Zm28.741 0v-1.312c-.384.416-.928.768-1.632 1.088-.736.32-1.6.48-2.56.48-2.368 0-4.256-.736-5.696-2.24-1.44-1.472-2.144-3.584-2.144-6.304 0-2.496.768-4.576 2.368-6.24 1.568-1.632 3.488-2.464 5.76-2.464 1.76 0 3.072.288 3.904.8V10h4.64v23.36h-4.64Zm-3.2-4.064c.64 0 1.248-.16 1.888-.544.608-.352 1.056-.832 1.312-1.408v-5.376c-.704-.832-1.664-1.28-2.912-1.28s-2.272.384-3.104 1.152c-.832.768-1.216 1.824-1.216 3.168s.352 2.368 1.12 3.136c.736.768 1.696 1.152 2.912 1.152Zm9.758 4.064V16.72h4.64v.672c.192-.256.512-.48 1.024-.672.512-.192 1.024-.32 1.536-.32.832 0 1.472.128 1.952.352.448.224.896.576 1.312 1.088l-2.368 3.712c-.256-.448-.736-.672-1.504-.672-.992 0-1.632.576-1.952 1.728V33.36h-4.64Zm10.922 0V16.72h4.64v16.64h-4.64Zm-.288-21.056c0-.64.224-1.184.736-1.632.48-.448 1.12-.672 1.888-.672.736 0 1.344.224 1.856.672.48.448.736.992.736 1.632 0 .704-.256 1.248-.736 1.696-.512.448-1.12.672-1.856.672-.832 0-1.472-.192-1.92-.64-.48-.448-.704-1.024-.704-1.728Zm19.485 14.816 3.392 2.016c-.768 1.472-1.792 2.56-3.136 3.328-1.344.768-2.784 1.152-4.384 1.152-2.72 0-4.896-.768-6.56-2.336-1.664-1.568-2.464-3.648-2.464-6.272 0-2.496.8-4.544 2.464-6.176 1.632-1.632 3.744-2.464 6.336-2.464 1.888 0 3.488.384 4.8 1.152 1.312.768 2.24 1.76 2.816 3.008l-3.456 2.24c-1.024-1.376-2.336-2.08-3.872-2.08-1.28 0-2.336.416-3.104 1.184-.8.8-1.184 1.856-1.184 3.136 0 1.216.416 2.208 1.312 3.04.864.832 2.016 1.248 3.424 1.248 1.536 0 2.72-.704 3.616-2.176Zm3.97 6.24V10h4.64v7.776c1.024-.896 2.496-1.376 4.416-1.376 2.24 0 3.872.64 4.96 1.856 1.088 1.216 1.632 3.168 1.632 5.792v9.312h-4.64v-9.088c0-1.28-.256-2.208-.736-2.752-.512-.512-1.312-.8-2.432-.8-1.344 0-2.432.672-3.2 1.984V33.36h-4.64ZM170 12.73c0-.476.169-.887.513-1.224a1.697 1.697 0 0 1 1.246-.506c.477 0 .887.176 1.232.513.337.337.513.748.513 1.217 0 .491-.176.909-.513 1.246a1.7 1.7 0 0 1-1.232.506c-.491 0-.909-.168-1.246-.506A1.678 1.678 0 0 1 170 12.73Zm.308.007c0 .403.139.74.418 1.02a1.4 1.4 0 0 0 1.026.417c.396 0 .733-.14 1.019-.425.279-.279.425-.616.425-1.012s-.146-.733-.425-1.011a1.413 1.413 0 0 0-1.019-.425 1.4 1.4 0 0 0-1.019.425 1.356 1.356 0 0 0-.425 1.011Zm1.092 1.012h-.344v-2.075h.652c.528 0 .799.213.799.63a.587.587 0 0 1-.125.375.726.726 0 0 1-.329.22l.601.85h-.411l-.528-.762h-.315v.762Zm.733-1.408c0-.139-.036-.234-.11-.293-.073-.058-.183-.088-.33-.088h-.293v.733h.323c.102 0 .19-.029.278-.095a.292.292 0 0 0 .132-.257Z"/></svg>