<svg xmlns="http://www.w3.org/2000/svg" width="176" height="44" fill="none"><path fill="#fff" d="m8.908 15.714 14.846-8.571L14.846 2 0 10.571v17.143l8.908 5.143V15.714Zm23.989.571v17.143L18.05 42l-8.907-5.143 14.846-8.57V11.142l8.908 5.142Z" opacity=".84"/><path fill="#fff" d="M41.897 34.09v-23.1h5.114v18.315h12.474v4.785H41.898Zm18.723 0V16.93h4.786v17.16H60.62Zm-.296-21.714c0-.66.23-1.221.759-1.683.495-.462 1.155-.693 1.947-.693.759 0 1.386.231 1.914.693.495.462.759 1.023.759 1.683 0 .726-.264 1.287-.76 1.749-.527.462-1.154.693-1.913.693-.858 0-1.518-.198-1.98-.66-.495-.462-.726-1.056-.726-1.782ZM67.68 34.09V16.93h4.785v1.221c.858-1.023 2.41-1.551 4.686-1.551 2.244 0 3.927.66 5.05 1.914 1.121 1.254 1.715 3.234 1.715 5.94v9.636h-4.785v-9.339c0-1.32-.297-2.277-.825-2.838-.528-.561-1.386-.858-2.54-.858-1.585 0-2.707.759-3.3 2.277V34.09H67.68Zm29.64 0v-1.353c-.397.429-.958.792-1.684 1.122-.759.33-1.65.495-2.64.495-2.442 0-4.389-.759-5.874-2.31-1.485-1.518-2.21-3.696-2.21-6.501 0-2.574.791-4.719 2.441-6.435 1.617-1.683 3.597-2.541 5.94-2.541 1.815 0 3.168.297 4.026.825V10h4.785v24.09h-4.785Zm-3.3-4.191c.66 0 1.286-.165 1.946-.561.627-.363 1.09-.858 1.353-1.452v-5.544c-.726-.858-1.716-1.32-3.003-1.32-1.287 0-2.343.396-3.2 1.188-.859.792-1.255 1.881-1.255 3.267s.363 2.442 1.155 3.234c.76.792 1.75 1.188 3.003 1.188Zm10.062 4.191V10h4.785v8.019c1.056-.924 2.574-1.419 4.554-1.419 2.31 0 3.993.66 5.115 1.914 1.122 1.254 1.683 3.267 1.683 5.973v9.603h-4.785v-9.372c0-1.32-.264-2.277-.759-2.838-.528-.528-1.353-.825-2.508-.825-1.386 0-2.508.693-3.3 2.046V34.09h-4.785Zm17.134-8.613c0-2.574.858-4.719 2.574-6.402 1.716-1.65 3.96-2.508 6.699-2.508 2.706 0 4.95.858 6.699 2.508 1.749 1.683 2.64 3.828 2.64 6.402 0 2.574-.891 4.719-2.64 6.369-1.749 1.683-3.993 2.508-6.699 2.508-2.673 0-4.884-.825-6.633-2.508-1.782-1.65-2.64-3.795-2.64-6.369Zm4.95 0c0 1.287.396 2.343 1.188 3.168.792.858 1.848 1.254 3.135 1.254 1.32 0 2.376-.396 3.168-1.188.792-.792 1.221-1.848 1.221-3.234 0-1.353-.429-2.442-1.254-3.234-.858-.792-1.881-1.221-3.135-1.221-1.254 0-2.31.396-3.102 1.188-.825.792-1.221 1.881-1.221 3.267Zm14.801 8.613V10h4.785v24.09h-4.785Zm31.23-11.418V34.09h-4.785V24.025c0-1.98-.759-2.97-2.211-2.97-1.287 0-2.244.693-2.838 2.079V34.09h-4.785V23.233c0-.66-.198-1.188-.528-1.584-.363-.396-.858-.594-1.485-.594-1.485 0-2.508.726-3.036 2.112V34.09h-4.785V16.93h4.785v1.155c.891-.99 2.277-1.485 4.125-1.485 1.782 0 3.234.627 4.422 1.848.627-.66 1.287-1.122 1.98-1.419.66-.264 1.518-.429 2.508-.429 2.112 0 3.762.528 4.917 1.551 1.122 1.056 1.716 2.541 1.716 4.521Zm.31-11.672c.342 0 .669.07.981.203a2.5 2.5 0 0 1 .795.54c.219.225.394.491.524.798.126.307.193.628.193.96 0 .333-.067.655-.197.962-.13.306-.304.573-.527.798a2.474 2.474 0 0 1-.799.54 2.48 2.48 0 0 1-.984.199c-.346 0-.673-.066-.981-.2a2.43 2.43 0 0 1-.791-.535 2.436 2.436 0 0 1-.528-.799 2.446 2.446 0 0 1-.193-.964c0-.333.063-.65.193-.957.13-.307.305-.573.528-.802a2.47 2.47 0 0 1 .798-.54c.312-.133.639-.203.988-.203Zm-.014 4.21c.315 0 .605-.075.865-.23a1.7 1.7 0 0 0 .613-.62c.145-.26.219-.548.219-.858a1.734 1.734 0 0 0-.483-1.205 1.653 1.653 0 0 0-.538-.362 1.685 1.685 0 0 0-.665-.137 1.676 1.676 0 0 0-1.482.858 1.7 1.7 0 0 0-.22.857c0 .31.071.599.22.857.144.259.349.466.609.614.26.151.546.225.862.225Zm.999-2.063c0 .355-.138.599-.412.732l.534.831h-.798l-.435-.72h-.119v.72h-.683v-2.45h1.003c.301 0 .527.082.68.244.152.163.23.377.23.643Zm-1.23-.27v.507h.164a.412.412 0 0 0 .241-.063.214.214 0 0 0 .093-.189.23.23 0 0 0-.089-.18.397.397 0 0 0-.253-.075h-.156Z"/></svg>