<svg xmlns="http://www.w3.org/2000/svg" width="48" height="48" fill="none"><g fill="#fff" opacity=".84"><path d="M12 4H0v10h12V4Z"/><path d="M36 4H24v10h12V4ZM24 14H12v10h12V14Z" opacity=".6"/><path d="M36 14H24v10h12V14Z" opacity=".45"/><path d="M48 14H36v10h12V14Z" opacity=".3"/><path d="M12 24H0v10h12V24Z" opacity=".6"/><path d="M24 24H12v10h12V24Z" opacity=".45"/><path d="M36 24H24v10h12V24Z" opacity=".3"/><path d="M48 24H36v10h12V24Z" opacity=".15"/><path d="M24 34H12v10h12V34Z" opacity=".3"/><path d="M36 34H24v10h12V34Z" opacity=".15"/></g></svg>