<svg xmlns="http://www.w3.org/2000/svg" width="179" height="44" fill="none"><g fill="#fff" opacity=".84"><path d="M0 13.632v16.454l15.54-10.633V3L0 13.632Z" opacity=".5"/><path d="M0 30.086V13.632l15.54 10.633v16.453L0 30.086Zm34.735-16.454v16.454l-15.54-10.633V3l15.54 10.632Z" opacity=".5"/><path d="M34.735 30.086V13.632l-15.54 10.633v16.453l15.54-10.632Z" opacity=".5"/></g><path fill="#fff" d="M64.759 34.782h-6.513L46.858 16.608v18.174h-6.123V7.131h7.488L58.597 23.94V7.131h6.162v27.651Zm14.959 0c-.079-.351-.157-1.443-.157-1.95-1.014 1.677-3.237 2.379-5.187 2.379-4.718 0-7.37-3.432-7.37-7.566V15.399h5.927v10.998c0 1.872 1.014 3.354 3.12 3.354 1.99 0 3.237-1.365 3.237-3.315V15.399h5.928v15.912c0 1.755.157 3.159.196 3.471h-5.695Zm13.521 0H87.31V15.399h5.655v2.223c.975-1.716 3.47-2.808 5.577-2.808 2.769 0 4.758 1.131 5.733 3.042 1.521-2.184 3.393-3.042 6.006-3.042 3.666 0 7.176 2.145 7.176 7.41v12.558h-5.733V23.55c0-1.833-.975-3.276-3.081-3.276s-3.237 1.599-3.237 3.315v11.193h-5.85V23.55c0-1.833-.975-3.276-3.12-3.276-2.067 0-3.198 1.599-3.198 3.354v11.154Zm30.59-12.012h7.761c-.078-1.482-1.092-3.276-3.9-3.276-2.496 0-3.744 1.833-3.861 3.276Zm8.19 5.031 4.953 1.404c-.936 3.354-4.017 6.162-8.931 6.162-5.343 0-10.101-3.822-10.101-10.335 0-6.24 4.641-10.218 9.672-10.218 6.006 0 9.711 3.705 9.711 9.945 0 .819-.078 1.716-.117 1.833h-13.494c.117 2.184 2.106 3.744 4.407 3.744 2.145 0 3.354-1.014 3.9-2.535Zm18.314-12.402v5.85a8.045 8.045 0 0 0-1.872-.195c-2.379 0-4.524 1.404-4.524 5.265v8.463h-5.928V15.399h5.733v2.613c1.014-2.184 3.471-2.808 5.031-2.808.585 0 1.17.078 1.56.195Zm6.404 19.383h-5.928V15.399h5.928v19.383Zm-6.435-25.311c0-1.911 1.56-3.471 3.432-3.471 1.95 0 3.51 1.56 3.51 3.471s-1.56 3.471-3.51 3.471c-1.872 0-3.432-1.56-3.432-3.471Zm27.579 32.721h-5.811v-8.97c-.858 1.209-2.652 1.989-5.07 1.989-5.538 0-9.594-4.251-9.594-10.179 0-5.772 3.822-10.101 9.36-10.101 3.432 0 5.031 1.56 5.46 2.379v-1.911h5.655v26.793Zm-14.469-17.121c0 3.198 2.067 4.836 4.368 4.836s4.368-1.599 4.368-4.836-2.067-4.797-4.368-4.797-4.368 1.56-4.368 4.797Z"/></svg>