<svg xmlns="http://www.w3.org/2000/svg" width="169" height="44" fill="none"><path fill="#fff" d="M39 22a6 6 0 0 0-6-6H11a6 6 0 0 0 0 12h22a6 6 0 0 0 6-6Zm5 0c0 6.075-4.925 11-11 11H11C4.925 33 0 28.075 0 22s4.925-11 11-11h22c6.075 0 11 4.925 11 11Zm11.672-.375c0 .98.161 1.89.484 2.734a7.282 7.282 0 0 0 1.438 2.313 7.6 7.6 0 0 0 2.375 1.765c.885.407 1.802.61 2.75.61 1.99 0 3.656-.709 5-2.125 1.354-1.417 2.031-3.182 2.031-5.297 0-1.938-.682-3.588-2.047-4.953-1.354-1.375-2.984-2.063-4.89-2.063-1.99 0-3.678.683-5.063 2.047-1.385 1.365-2.078 3.021-2.078 4.969ZM51 21.781c0-1.25.167-2.427.5-3.531a11.327 11.327 0 0 1 1.484-3.125c1.125-1.635 2.537-2.896 4.235-3.781C58.917 10.448 60.77 10 62.78 10c1.51 0 2.964.292 4.36.875a11.653 11.653 0 0 1 3.765 2.516 11.87 11.87 0 0 1 2.594 3.828c.594 1.416.89 2.906.89 4.468 0 1.625-.28 3.151-.843 4.579a11.078 11.078 0 0 1-2.453 3.797 11.395 11.395 0 0 1-3.828 2.671 11.52 11.52 0 0 1-4.547.922c-1.698 0-3.26-.302-4.688-.906-1.427-.604-2.692-1.5-3.797-2.688a11.778 11.778 0 0 1-2.422-3.78c-.541-1.407-.812-2.907-.812-4.5Zm28.93 2.907c0 1.395.464 2.578 1.391 3.546.927.97 2.047 1.453 3.36 1.453 1.49 0 2.724-.479 3.703-1.437.979-.969 1.469-2.177 1.469-3.625 0-1.385-.49-2.578-1.47-3.578-.968-1-2.14-1.5-3.515-1.5-1.396 0-2.568.495-3.515 1.484-.948.98-1.422 2.198-1.422 3.657Zm-.156-7.297a7.256 7.256 0 0 1 2.407-1.344c.864-.292 1.854-.438 2.968-.438a8.99 8.99 0 0 1 3.235.579 8.037 8.037 0 0 1 2.687 1.687 8.776 8.776 0 0 1 2.14 3.031 8.955 8.955 0 0 1 .767 3.657 9.278 9.278 0 0 1-.844 3.906 9.178 9.178 0 0 1-2.375 3.172 8.09 8.09 0 0 1-2.578 1.5 9 9 0 0 1-3.063.515 8.658 8.658 0 0 1-2.844-.453 8.81 8.81 0 0 1-2.5-1.406v1.406h-3.937v-22.75h3.937v6.938Zm16.025 15.812v-22.75h3.906v22.75h-3.906Zm10.446-18.937h-3.906v-3.813h.093a3.813 3.813 0 0 1 3.813 3.813Zm-3.906 18.937V16.016h3.906v17.187h-3.906Zm19.712-8.672c0-1.396-.459-2.573-1.375-3.531-.907-.969-2.016-1.453-3.328-1.453-1.49 0-2.724.479-3.704 1.437-.979.959-1.468 2.162-1.468 3.61 0 1.396.484 2.593 1.453 3.593.979 1 2.156 1.5 3.531 1.5 1.396 0 2.557-.49 3.484-1.468.938-.99 1.407-2.219 1.407-3.688Zm.172 7.297a7.709 7.709 0 0 1-2.438 1.375c-.854.302-1.823.453-2.906.453a8.828 8.828 0 0 1-3.219-.593 8.302 8.302 0 0 1-2.703-1.72 9.04 9.04 0 0 1-2.188-3.03 9.033 9.033 0 0 1-.765-3.657 9.32 9.32 0 0 1 .828-3.89 9.255 9.255 0 0 1 2.406-3.172 7.73 7.73 0 0 1 2.578-1.5 9.004 9.004 0 0 1 3.063-.516 8.35 8.35 0 0 1 2.828.469c.875.302 1.713.77 2.516 1.406v-1.437h3.937v22.75h-3.937v-6.938Zm9.383-7.328c0 1.594.438 2.86 1.313 3.797.875.927 2.062 1.39 3.562 1.39 1.479 0 2.656-.474 3.531-1.421.886-.959 1.329-2.245 1.329-3.86 0-1.448-.464-2.635-1.391-3.562-.917-.938-2.073-1.407-3.469-1.407-1.437 0-2.609.474-3.515 1.422-.907.938-1.36 2.151-1.36 3.641Zm-4.125.031a9.1 9.1 0 0 1 .656-3.437 8.775 8.775 0 0 1 1.938-2.907 9.155 9.155 0 0 1 2.922-1.984 8.412 8.412 0 0 1 3.375-.703c1.239 0 2.38.208 3.422.625a8.853 8.853 0 0 1 2.89 1.844 9.172 9.172 0 0 1 2.078 3 8.604 8.604 0 0 1 .735 3.468c0 1.313-.214 2.51-.641 3.594a8.786 8.786 0 0 1-1.922 2.938 8.702 8.702 0 0 1-2.922 2.015c-1.093.448-2.281.672-3.562.672-1.292 0-2.469-.229-3.531-.687-1.063-.459-2.032-1.146-2.907-2.063a9.448 9.448 0 0 1-1.89-2.953 9.247 9.247 0 0 1-.641-3.422Zm23.509-8.515v1.953c.583-.782 1.25-1.36 2-1.735.76-.375 1.625-.562 2.594-.562 1.239 0 2.317.234 3.234.703.927.469 1.698 1.172 2.313 2.11.395.624.677 1.338.843 2.14.177.792.266 1.953.266 3.484v9.094h-4v-7.61c0-2.301-.266-3.88-.797-4.734-.531-.854-1.448-1.28-2.75-1.28-1.333 0-2.292.473-2.875 1.421-.583.938-.875 2.552-.875 4.844v7.36h-3.859V16.015h3.906ZM164.009 9a3.014 3.014 0 0 1 2.131.891c.263.27.472.59.628.958.152.368.232.754.232 1.153 0 .4-.08.785-.236 1.153a3.028 3.028 0 0 1-.633.958c-.268.27-.584.488-.959.648a2.97 2.97 0 0 1-1.181.239 2.94 2.94 0 0 1-1.177-.24 2.913 2.913 0 0 1-.949-.643 2.916 2.916 0 0 1-.633-.957 2.934 2.934 0 0 1-.232-1.158c0-.399.076-.78.232-1.148.156-.368.365-.688.633-.963.267-.27.584-.487.958-.647.375-.16.767-.244 1.186-.244Zm-.018 5.051a1.99 1.99 0 0 0 1.039-.275c.312-.186.557-.434.735-.745.174-.31.263-.656.263-1.029 0-.28-.053-.545-.156-.798a2.1 2.1 0 0 0-.423-.648 2 2 0 0 0-.647-.434 2.018 2.018 0 0 0-.798-.164 2.01 2.01 0 0 0-1.778 1.029 2.048 2.048 0 0 0-.263 1.028c0 .373.085.719.263 1.03.174.31.419.558.731.736.312.181.655.27 1.034.27Zm1.199-2.475c0 .426-.165.719-.495.878l.642.998h-.958l-.522-.864h-.142v.864h-.82v-2.94h1.203c.361 0 .633.098.816.293.183.195.276.452.276.771Zm-1.475-.323v.607h.196a.496.496 0 0 0 .29-.075.258.258 0 0 0 .111-.226.28.28 0 0 0-.107-.217.473.473 0 0 0-.303-.09h-.187Z"/></svg>