<svg xmlns="http://www.w3.org/2000/svg" width="153" height="44" fill="none"><g fill="#fff" opacity=".84"><path d="M29.699 33.067a2.534 2.534 0 0 1-2.283 1.433H13.64c-1.874 0-3.1-1.965-2.276-3.65l9.515-19.43A2.535 2.535 0 0 1 23.154 10h13.643c1.869 0 3.095 1.953 2.282 3.636L29.7 33.067Z"/><path d="M5.243 24.565c.888 1.945 3.638 1.984 4.58.065l5.394-10.978c.827-1.684-.398-3.652-2.275-3.652H2.537C.692 10-.534 11.909.232 13.587l5.011 10.978Z" opacity=".5"/></g><path fill="#fff" d="M46.594 33.89c-1.672 0-3.157-.328-4.469-1.015-1.313-.688-2.328-1.64-3.047-2.89C38.36 28.75 38 27.327 38 25.734c0-1.594.36-3 1.078-4.25.719-1.235 1.734-2.204 3.047-2.891 1.313-.688 2.797-1.032 4.469-1.032 1.656 0 3.14.344 4.453 1.032a7.647 7.647 0 0 1 3.047 2.89c.718 1.25 1.093 2.657 1.093 4.25 0 1.594-.374 3.016-1.093 4.25-.735 1.25-1.75 2.203-3.047 2.891-1.313.688-2.797 1.016-4.453 1.016Zm0-5.046c.812 0 1.484-.282 2.031-.875.531-.594.813-1.328.813-2.235 0-.906-.266-1.656-.797-2.234-.532-.578-1.22-.875-2.047-.875-.407 0-.797.078-1.14.234-.36.157-.657.375-.907.641a3.14 3.14 0 0 0-.594.984 3.68 3.68 0 0 0-.203 1.25c0 .36.047.703.14 1.016.094.328.22.61.391.86.172.25.375.468.61.656.234.187.5.343.78.437.282.094.595.14.923.14Zm19.915-11.281h.031v6.109a23.673 23.673 0 0 0-1.203-.031c-1.063 0-1.875.28-2.422.843-.563.563-.828 1.297-.828 2.235v6.843h-5.719v-15.67h5.719v2.14h.047c.547-.797 1.203-1.406 1.953-1.828a4.882 4.882 0 0 1 2.422-.64Zm11.04 0a7.66 7.66 0 0 1 1.515.14c.47.094.907.235 1.344.422.422.203.797.469 1.125.797.313.344.594.75.844 1.219.234.468.422 1.047.547 1.703.125.656.187 1.406.187 2.234v9.485h-5.719v-8.11c0-.719-.078-1.297-.234-1.719-.156-.406-.375-.703-.656-.859-.281-.156-.672-.25-1.156-.25-.72 0-1.266.266-1.672.766-.407.5-.61 1.265-.61 2.297v7.875h-5.718V17.89h5.718v1.718h.032a5.631 5.631 0 0 1 2.015-1.515 5.896 5.896 0 0 1 2.438-.532Zm17.259 0c.78 0 1.515.14 2.218.39.703.25 1.344.625 1.907 1.11a7.816 7.816 0 0 1 1.484 1.703c.422.656.75 1.422.984 2.265.219.844.344 1.75.344 2.688 0 1.593-.312 3.015-.922 4.265-.625 1.25-1.484 2.203-2.578 2.891-1.11.688-2.375 1.016-3.781 1.016-1.813 0-3.188-.594-4.156-1.797h-.063v1.468h-5.422V10h5.735v9.453h.046c1.11-1.25 2.516-1.89 4.204-1.89Zm-1.61 11.328c.813 0 1.469-.282 2-.86.516-.578.781-1.343.781-2.297 0-.922-.265-1.672-.78-2.265-.532-.578-1.188-.875-2-.875a2.92 2.92 0 0 0-1.485.39 2.824 2.824 0 0 0-1.031 1.11 3.522 3.522 0 0 0-.376 1.64c0 .953.266 1.72.813 2.297.531.578 1.234.86 2.078.86Zm25.071-3.281c0 .593-.062 1.109-.156 1.515h-10.281c.125.734.469 1.297 1.062 1.672.594.39 1.313.578 2.188.578 1.297 0 2.5-.578 3.609-1.734l2.953 3.25c-.718.89-1.687 1.609-2.937 2.172-1.25.562-2.656.828-4.235.828-1.562 0-2.953-.328-4.203-1.016a7.544 7.544 0 0 1-2.953-2.906c-.719-1.25-1.062-2.657-1.062-4.25 0-1.563.343-2.953 1.031-4.203a7.421 7.421 0 0 1 2.906-2.907c1.235-.687 2.625-1.047 4.188-1.047 1.109 0 2.156.204 3.14.61.969.406 1.813.953 2.5 1.64.688.704 1.235 1.563 1.641 2.563.406 1 .609 2.078.609 3.234Zm-7.922-3.688c-.64 0-1.187.187-1.64.562-.453.375-.735.875-.86 1.532h4.875a3.87 3.87 0 0 0-.328-.875 2.996 2.996 0 0 0-.5-.657 2.007 2.007 0 0 0-.703-.422 2.516 2.516 0 0 0-.844-.14Zm19.197-4.359h.031v6.109a23.7 23.7 0 0 0-1.203-.031c-1.063 0-1.875.28-2.422.843-.563.563-.828 1.297-.828 2.235v6.843h-5.719v-15.67h5.719v2.14h.047c.547-.797 1.203-1.406 1.953-1.828a4.88 4.88 0 0 1 2.422-.64Zm11.024.327h5.719v13.391c0 1.094-.094 2.094-.266 2.969a9.18 9.18 0 0 1-.89 2.453c-.422.75-.954 1.39-1.61 1.89-.656.516-1.484.923-2.484 1.204-1 .281-2.141.422-3.422.422-1.344 0-2.516-.11-3.516-.328-1-.22-2-.578-2.984-1.11l1.266-4.5c.562.36 1.265.657 2.125.907.859.25 1.656.359 2.39.359 1.203 0 2.141-.234 2.813-.719.656-.469 1-1.078 1-1.812v-1.422h-.047c-1 1.093-2.391 1.64-4.141 1.64-1.359 0-2.578-.328-3.64-1-1.079-.672-1.907-1.593-2.5-2.75-.594-1.156-.875-2.468-.875-3.906 0-1.14.171-2.219.515-3.219s.828-1.843 1.422-2.547a6.638 6.638 0 0 1 2.125-1.64 5.967 5.967 0 0 1 2.656-.61c1.75 0 3.188.625 4.297 1.86h.047V17.89Zm-2.516 10.313c.782 0 1.438-.25 1.969-.765.531-.516.797-1.188.797-2.016 0-.813-.266-1.469-.797-2-.531-.531-1.187-.797-1.969-.797-.781 0-1.453.266-1.984.797-.531.531-.797 1.187-.797 2 0 .828.266 1.5.797 2.015.531.516 1.188.766 1.984.766ZM149.507 11c.342 0 .669.07.981.203a2.5 2.5 0 0 1 .795.54c.219.225.394.491.524.798.126.307.193.628.193.96 0 .333-.067.655-.197.962-.13.306-.304.573-.527.798a2.474 2.474 0 0 1-.799.54 2.48 2.48 0 0 1-.984.199c-.346 0-.673-.066-.981-.2a2.43 2.43 0 0 1-.791-.535 2.436 2.436 0 0 1-.528-.799 2.446 2.446 0 0 1-.193-.964c0-.333.063-.65.193-.957.13-.307.305-.573.528-.802a2.47 2.47 0 0 1 .798-.54c.312-.133.639-.203.988-.203Zm-.014 4.21c.315 0 .605-.075.865-.23a1.7 1.7 0 0 0 .613-.62c.145-.26.219-.548.219-.858a1.734 1.734 0 0 0-.483-1.205 1.653 1.653 0 0 0-.538-.362 1.685 1.685 0 0 0-.665-.137 1.676 1.676 0 0 0-1.482.858 1.7 1.7 0 0 0-.22.857c0 .31.071.599.22.857.144.259.349.466.609.614.26.151.546.225.862.225Zm.999-2.063c0 .355-.138.599-.413.732l.535.831h-.798l-.435-.72h-.119v.72h-.683v-2.45h1.003c.301 0 .527.082.68.244.152.163.23.377.23.643Zm-1.23-.27v.507h.164a.412.412 0 0 0 .241-.063.214.214 0 0 0 .093-.189.23.23 0 0 0-.089-.18.397.397 0 0 0-.253-.075h-.156Z"/></svg>