<svg width="472" height="104" viewBox="0 0 472 104" fill="none" xmlns="http://www.w3.org/2000/svg">
<path d="M58.3867 90C53.9993 84.1616 51.6396 77.0497 51.6667 69.7467V56.1667C51.6575 54.7867 51.9254 53.419 52.4545 52.1444C52.9835 50.8699 53.763 49.7145 54.7467 48.7467L59.4133 44.08C61.3863 42.1189 64.0515 41.0126 66.8333 41H84.3333V14.1667C84.3211 12.0045 83.4567 9.9344 81.9278 8.4055C80.3989 6.8766 78.3288 6.01225 76.1667 6H20.1667C18.0045 6.01225 15.9344 6.8766 14.4055 8.4055C12.8766 9.9344 12.0123 12.0045 12 14.1667V88.8333C12.0123 90.9955 12.8766 93.0656 14.4055 94.5945C15.9344 96.1234 18.0045 96.9877 20.1667 97H65.5267C62.7922 95.058 60.3824 92.6955 58.3867 90ZM48.1667 50.3333H29.5C28.5717 50.3333 27.6815 49.9646 27.0251 49.3082C26.3688 48.6518 26 47.7616 26 46.8333C26 45.9051 26.3688 45.0148 27.0251 44.3585C27.6815 43.7021 28.5717 43.3333 29.5 43.3333H48.1667C49.0949 43.3333 49.9852 43.7021 50.6415 44.3585C51.2979 45.0148 51.6667 45.9051 51.6667 46.8333C51.6667 47.7616 51.2979 48.6518 50.6415 49.3082C49.9852 49.9646 49.0949 50.3333 48.1667 50.3333ZM66.8333 36.3333H29.5C28.5717 36.3333 27.6815 35.9646 27.0251 35.3082C26.3688 34.6518 26 33.7616 26 32.8333C26 31.9051 26.3688 31.0148 27.0251 30.3585C27.6815 29.7021 28.5717 29.3333 29.5 29.3333H66.8333C67.7616 29.3333 68.6518 29.7021 69.3082 30.3585C69.9646 31.0148 70.3333 31.9051 70.3333 32.8333C70.3333 33.7616 69.9646 34.6518 69.3082 35.3082C68.6518 35.9646 67.7616 36.3333 66.8333 36.3333ZM66.8333 22.3333H29.5C28.5717 22.3333 27.6815 21.9646 27.0251 21.3082C26.3688 20.6518 26 19.7616 26 18.8333C26 17.9051 26.3688 17.0148 27.0251 16.3585C27.6815 15.7021 28.5717 15.3333 29.5 15.3333H66.8333C67.7616 15.3333 68.6518 15.7021 69.3082 16.3585C69.9646 17.0148 70.3333 17.9051 70.3333 18.8333C70.3333 19.7616 69.9646 20.6518 69.3082 21.3082C68.6518 21.9646 67.7616 22.3333 66.8333 22.3333Z" fill="white"/>
<path d="M101.973 53.6933L97.3067 49.0267C96.6509 48.3701 95.7613 48.0008 94.8333 48H66.8333C65.9054 48.0008 65.0158 48.3701 64.36 49.0267L59.6933 53.6933C59.0368 54.3491 58.6675 55.2387 58.6667 56.1667V69.7467C58.6189 70.5704 58.6189 71.3963 58.6667 72.22C58.8361 74.3361 59.2752 76.4219 59.9733 78.4267C60.2046 79.1755 60.4852 79.9083 60.8133 80.62C61.1867 81.46 61.6067 82.2533 62.0267 83.0467C62.4489 83.8202 62.9163 84.5682 63.4267 85.2867C63.94 85.94 64.4067 86.5933 64.9667 87.2C65.622 87.9877 66.3399 88.7212 67.1133 89.3933C68.9617 91.0854 71.0345 92.5144 73.2733 93.64L76.96 95.5067C77.6401 95.8372 78.3624 96.0727 79.1067 96.2067C79.5409 96.2548 79.9791 96.2548 80.4133 96.2067C81.6753 96.2117 82.9212 95.9241 84.0533 95.3667L87.74 93.5C92.2066 91.2864 95.9642 87.8662 98.5869 83.6268C101.21 79.3875 102.593 74.4984 102.58 69.5133V56.1667C102.696 55.2953 102.479 54.4123 101.973 53.6933ZM80.8333 77.3067C80.1771 77.9621 79.2875 78.3303 78.36 78.3303C77.4325 78.3303 76.5429 77.9621 75.8867 77.3067L73.6467 75.0667L71.5 72.64C70.8446 71.9838 70.4764 71.0942 70.4764 70.1667C70.4764 69.2392 70.8446 68.3496 71.5 67.6933C71.8752 67.329 72.3194 67.0434 72.8067 66.8533C73.4315 66.6408 74.1032 66.6069 74.7462 66.7553C75.3893 66.9037 75.9782 67.2285 76.4467 67.6933L78.64 69.8867L85.5 63.0267C85.8231 62.6995 86.2084 62.4401 86.6331 62.2638C87.0578 62.0875 87.5135 61.9978 87.9733 62C88.3593 61.9329 88.754 61.9329 89.14 62C89.6272 62.19 90.0715 62.4756 90.4467 62.84C91.1021 63.4963 91.4703 64.3858 91.4703 65.3133C91.4703 66.2408 91.1021 67.1304 90.4467 67.7867L89.14 69.0933L80.8333 77.3067Z" fill="white"/>
<path d="M160.438 59.9062H169.781C169.594 62.9688 168.75 65.6875 167.25 68.0625C165.771 70.4375 163.698 72.2917 161.031 73.625C158.385 74.9583 155.198 75.625 151.469 75.625C148.552 75.625 145.938 75.125 143.625 74.125C141.312 73.1042 139.333 71.6458 137.688 69.75C136.062 67.8542 134.823 65.5625 133.969 62.875C133.115 60.1875 132.688 57.1771 132.688 53.8438V50.6875C132.688 47.3542 133.125 44.3438 134 41.6562C134.896 38.9479 136.167 36.6458 137.812 34.75C139.479 32.8542 141.469 31.3958 143.781 30.375C146.094 29.3542 148.677 28.8438 151.531 28.8438C155.323 28.8438 158.521 29.5312 161.125 30.9062C163.75 32.2812 165.781 34.1771 167.219 36.5938C168.677 39.0104 169.552 41.7604 169.844 44.8438H160.469C160.365 43.0104 160 41.4583 159.375 40.1875C158.75 38.8958 157.802 37.9271 156.531 37.2812C155.281 36.6146 153.615 36.2812 151.531 36.2812C149.969 36.2812 148.604 36.5729 147.438 37.1562C146.271 37.7396 145.292 38.625 144.5 39.8125C143.708 41 143.115 42.5 142.719 44.3125C142.344 46.1042 142.156 48.2083 142.156 50.625V53.8438C142.156 56.1979 142.333 58.2708 142.688 60.0625C143.042 61.8333 143.583 63.3333 144.312 64.5625C145.062 65.7708 146.021 66.6875 147.188 67.3125C148.375 67.9167 149.802 68.2188 151.469 68.2188C153.427 68.2188 155.042 67.9062 156.312 67.2812C157.583 66.6562 158.552 65.7292 159.219 64.5C159.906 63.2708 160.312 61.7396 160.438 59.9062ZM173.938 58.4375V57.7812C173.938 55.3021 174.292 53.0208 175 50.9375C175.708 48.8333 176.74 47.0104 178.094 45.4688C179.448 43.9271 181.115 42.7292 183.094 41.875C185.073 41 187.344 40.5625 189.906 40.5625C192.469 40.5625 194.75 41 196.75 41.875C198.75 42.7292 200.427 43.9271 201.781 45.4688C203.156 47.0104 204.198 48.8333 204.906 50.9375C205.615 53.0208 205.969 55.3021 205.969 57.7812V58.4375C205.969 60.8958 205.615 63.1771 204.906 65.2812C204.198 67.3646 203.156 69.1875 201.781 70.75C200.427 72.2917 198.76 73.4896 196.781 74.3438C194.802 75.1979 192.531 75.625 189.969 75.625C187.406 75.625 185.125 75.1979 183.125 74.3438C181.146 73.4896 179.469 72.2917 178.094 70.75C176.74 69.1875 175.708 67.3646 175 65.2812C174.292 63.1771 173.938 60.8958 173.938 58.4375ZM182.938 57.7812V58.4375C182.938 59.8542 183.062 61.1771 183.312 62.4062C183.562 63.6354 183.958 64.7188 184.5 65.6562C185.062 66.5729 185.792 67.2917 186.688 67.8125C187.583 68.3333 188.677 68.5938 189.969 68.5938C191.219 68.5938 192.292 68.3333 193.188 67.8125C194.083 67.2917 194.802 66.5729 195.344 65.6562C195.885 64.7188 196.281 63.6354 196.531 62.4062C196.802 61.1771 196.938 59.8542 196.938 58.4375V57.7812C196.938 56.4062 196.802 55.1146 196.531 53.9062C196.281 52.6771 195.875 51.5938 195.312 50.6562C194.771 49.6979 194.052 48.9479 193.156 48.4062C192.26 47.8646 191.177 47.5938 189.906 47.5938C188.635 47.5938 187.552 47.8646 186.656 48.4062C185.781 48.9479 185.062 49.6979 184.5 50.6562C183.958 51.5938 183.562 52.6771 183.312 53.9062C183.062 55.1146 182.938 56.4062 182.938 57.7812ZM220.5 48.1875V75H211.469V41.1875H219.938L220.5 48.1875ZM219.25 56.9062H216.75C216.75 54.5521 217.031 52.3854 217.594 50.4062C218.177 48.4062 219.021 46.6771 220.125 45.2188C221.25 43.7396 222.635 42.5938 224.281 41.7812C225.927 40.9688 227.833 40.5625 230 40.5625C231.5 40.5625 232.875 40.7917 234.125 41.25C235.375 41.6875 236.448 42.3854 237.344 43.3438C238.26 44.2812 238.969 45.5104 239.469 47.0312C239.969 48.5312 240.219 50.3333 240.219 52.4375V75H231.219V53.4375C231.219 51.8958 231.01 50.7083 230.594 49.875C230.177 49.0417 229.583 48.4583 228.812 48.125C228.062 47.7917 227.156 47.625 226.094 47.625C224.927 47.625 223.906 47.8646 223.031 48.3438C222.177 48.8229 221.469 49.4896 220.906 50.3438C220.344 51.1771 219.927 52.1562 219.656 53.2812C219.385 54.4062 219.25 55.6146 219.25 56.9062ZM239.375 55.875L236.156 56.2812C236.156 54.0729 236.427 52.0208 236.969 50.125C237.531 48.2292 238.354 46.5625 239.438 45.125C240.542 43.6875 241.906 42.5729 243.531 41.7812C245.156 40.9688 247.031 40.5625 249.156 40.5625C250.781 40.5625 252.26 40.8021 253.594 41.2812C254.927 41.7396 256.062 42.4792 257 43.5C257.958 44.5 258.688 45.8125 259.188 47.4375C259.708 49.0625 259.969 51.0521 259.969 53.4062V75H250.938V53.4062C250.938 51.8438 250.729 50.6562 250.312 49.8438C249.917 49.0104 249.333 48.4375 248.562 48.125C247.812 47.7917 246.917 47.625 245.875 47.625C244.792 47.625 243.844 47.8438 243.031 48.2812C242.219 48.6979 241.542 49.2812 241 50.0312C240.458 50.7812 240.052 51.6562 239.781 52.6562C239.51 53.6354 239.375 54.7083 239.375 55.875ZM275.938 47.6875V88H266.938V41.1875H275.281L275.938 47.6875ZM297.344 57.7188V58.375C297.344 60.8333 297.052 63.1146 296.469 65.2188C295.906 67.3229 295.073 69.1562 293.969 70.7188C292.865 72.2604 291.49 73.4688 289.844 74.3438C288.219 75.1979 286.344 75.625 284.219 75.625C282.156 75.625 280.365 75.2083 278.844 74.375C277.323 73.5417 276.042 72.375 275 70.875C273.979 69.3542 273.156 67.5938 272.531 65.5938C271.906 63.5938 271.427 61.4479 271.094 59.1562V57.4375C271.427 54.9792 271.906 52.7292 272.531 50.6875C273.156 48.625 273.979 46.8438 275 45.3438C276.042 43.8229 277.312 42.6458 278.812 41.8125C280.333 40.9792 282.115 40.5625 284.156 40.5625C286.302 40.5625 288.188 40.9688 289.812 41.7812C291.458 42.5938 292.833 43.7604 293.938 45.2812C295.062 46.8021 295.906 48.6146 296.469 50.7188C297.052 52.8229 297.344 55.1562 297.344 57.7188ZM288.312 58.375V57.7188C288.312 56.2812 288.188 54.9583 287.938 53.75C287.708 52.5208 287.333 51.4479 286.812 50.5312C286.312 49.6146 285.646 48.9062 284.812 48.4062C284 47.8854 283.01 47.625 281.844 47.625C280.615 47.625 279.562 47.8229 278.688 48.2188C277.833 48.6146 277.135 49.1875 276.594 49.9375C276.052 50.6875 275.646 51.5833 275.375 52.625C275.104 53.6667 274.938 54.8438 274.875 56.1562V60.5C274.979 62.0417 275.271 63.4271 275.75 64.6562C276.229 65.8646 276.969 66.8229 277.969 67.5312C278.969 68.2396 280.281 68.5938 281.906 68.5938C283.094 68.5938 284.094 68.3333 284.906 67.8125C285.719 67.2708 286.375 66.5312 286.875 65.5938C287.396 64.6562 287.76 63.5729 287.969 62.3438C288.198 61.1146 288.312 59.7917 288.312 58.375ZM312.438 27V75H303.406V27H312.438ZM329.375 41.1875V75H320.344V41.1875H329.375ZM319.781 32.375C319.781 31.0625 320.24 29.9792 321.156 29.125C322.073 28.2708 323.302 27.8438 324.844 27.8438C326.365 27.8438 327.583 28.2708 328.5 29.125C329.438 29.9792 329.906 31.0625 329.906 32.375C329.906 33.6875 329.438 34.7708 328.5 35.625C327.583 36.4792 326.365 36.9062 324.844 36.9062C323.302 36.9062 322.073 36.4792 321.156 35.625C320.24 34.7708 319.781 33.6875 319.781 32.375ZM355.062 67.375V52.3125C355.062 51.2292 354.885 50.3021 354.531 49.5312C354.177 48.7396 353.625 48.125 352.875 47.6875C352.146 47.25 351.198 47.0312 350.031 47.0312C349.031 47.0312 348.167 47.2083 347.438 47.5625C346.708 47.8958 346.146 48.3854 345.75 49.0312C345.354 49.6562 345.156 50.3958 345.156 51.25H336.156C336.156 49.8125 336.49 48.4479 337.156 47.1562C337.823 45.8646 338.792 44.7292 340.062 43.75C341.333 42.75 342.844 41.9688 344.594 41.4062C346.365 40.8438 348.344 40.5625 350.531 40.5625C353.156 40.5625 355.49 41 357.531 41.875C359.573 42.75 361.177 44.0625 362.344 45.8125C363.531 47.5625 364.125 49.75 364.125 52.375V66.8438C364.125 68.6979 364.24 70.2188 364.469 71.4062C364.698 72.5729 365.031 73.5938 365.469 74.4688V75H356.375C355.938 74.0833 355.604 72.9375 355.375 71.5625C355.167 70.1667 355.062 68.7708 355.062 67.375ZM356.25 54.4062L356.312 59.5H351.281C350.094 59.5 349.062 59.6354 348.188 59.9062C347.312 60.1771 346.594 60.5625 346.031 61.0625C345.469 61.5417 345.052 62.1042 344.781 62.75C344.531 63.3958 344.406 64.1042 344.406 64.875C344.406 65.6458 344.583 66.3438 344.938 66.9688C345.292 67.5729 345.802 68.0521 346.469 68.4062C347.135 68.7396 347.917 68.9062 348.812 68.9062C350.167 68.9062 351.344 68.6354 352.344 68.0938C353.344 67.5521 354.115 66.8854 354.656 66.0938C355.219 65.3021 355.51 64.5521 355.531 63.8438L357.906 67.6562C357.573 68.5104 357.115 69.3958 356.531 70.3125C355.969 71.2292 355.25 72.0938 354.375 72.9062C353.5 73.6979 352.448 74.3542 351.219 74.875C349.99 75.375 348.531 75.625 346.844 75.625C344.698 75.625 342.75 75.1979 341 74.3438C339.271 73.4688 337.896 72.2708 336.875 70.75C335.875 69.2083 335.375 67.4583 335.375 65.5C335.375 63.7292 335.708 62.1562 336.375 60.7812C337.042 59.4062 338.021 58.25 339.312 57.3125C340.625 56.3542 342.26 55.6354 344.219 55.1562C346.177 54.6562 348.448 54.4062 351.031 54.4062H356.25ZM379.875 48.4062V75H370.875V41.1875H379.312L379.875 48.4062ZM378.562 56.9062H376.125C376.125 54.4062 376.448 52.1562 377.094 50.1562C377.74 48.1354 378.646 46.4167 379.812 45C380.979 43.5625 382.365 42.4688 383.969 41.7188C385.594 40.9479 387.406 40.5625 389.406 40.5625C390.99 40.5625 392.438 40.7917 393.75 41.25C395.062 41.7083 396.188 42.4375 397.125 43.4375C398.083 44.4375 398.812 45.7604 399.312 47.4062C399.833 49.0521 400.094 51.0625 400.094 53.4375V75H391.031V53.4062C391.031 51.9062 390.823 50.7396 390.406 49.9062C389.99 49.0729 389.375 48.4896 388.562 48.1562C387.771 47.8021 386.792 47.625 385.625 47.625C384.417 47.625 383.365 47.8646 382.469 48.3438C381.594 48.8229 380.865 49.4896 380.281 50.3438C379.719 51.1771 379.292 52.1562 379 53.2812C378.708 54.4062 378.562 55.6146 378.562 56.9062ZM420.906 68.5938C422.01 68.5938 422.99 68.3854 423.844 67.9688C424.698 67.5312 425.365 66.9271 425.844 66.1562C426.344 65.3646 426.604 64.4375 426.625 63.375H435.094C435.073 65.75 434.438 67.8646 433.188 69.7188C431.938 71.5521 430.26 73 428.156 74.0625C426.052 75.1042 423.698 75.625 421.094 75.625C418.469 75.625 416.177 75.1875 414.219 74.3125C412.281 73.4375 410.667 72.2292 409.375 70.6875C408.083 69.125 407.115 67.3125 406.469 65.25C405.823 63.1667 405.5 60.9375 405.5 58.5625V57.6562C405.5 55.2604 405.823 53.0312 406.469 50.9688C407.115 48.8854 408.083 47.0729 409.375 45.5312C410.667 43.9688 412.281 42.75 414.219 41.875C416.156 41 418.427 40.5625 421.031 40.5625C423.802 40.5625 426.229 41.0938 428.312 42.1562C430.417 43.2188 432.062 44.7396 433.25 46.7188C434.458 48.6771 435.073 51 435.094 53.6875H426.625C426.604 52.5625 426.365 51.5417 425.906 50.625C425.469 49.7083 424.823 48.9792 423.969 48.4375C423.135 47.875 422.104 47.5938 420.875 47.5938C419.562 47.5938 418.49 47.875 417.656 48.4375C416.823 48.9792 416.177 49.7292 415.719 50.6875C415.26 51.625 414.938 52.6979 414.75 53.9062C414.583 55.0938 414.5 56.3438 414.5 57.6562V58.5625C414.5 59.875 414.583 61.1354 414.75 62.3438C414.917 63.5521 415.229 64.625 415.688 65.5625C416.167 66.5 416.823 67.2396 417.656 67.7812C418.49 68.3229 419.573 68.5938 420.906 68.5938ZM455.875 75.625C453.25 75.625 450.896 75.2083 448.812 74.375C446.729 73.5208 444.958 72.3438 443.5 70.8438C442.062 69.3438 440.958 67.6042 440.188 65.625C439.417 63.625 439.031 61.5 439.031 59.25V58C439.031 55.4375 439.396 53.0938 440.125 50.9688C440.854 48.8438 441.896 47 443.25 45.4375C444.625 43.875 446.292 42.6771 448.25 41.8438C450.208 40.9896 452.417 40.5625 454.875 40.5625C457.271 40.5625 459.396 40.9583 461.25 41.75C463.104 42.5417 464.656 43.6667 465.906 45.125C467.177 46.5833 468.135 48.3333 468.781 50.375C469.427 52.3958 469.75 54.6458 469.75 57.125V60.875H442.875V54.875H460.906V54.1875C460.906 52.9375 460.677 51.8229 460.219 50.8438C459.781 49.8438 459.115 49.0521 458.219 48.4688C457.323 47.8854 456.177 47.5938 454.781 47.5938C453.594 47.5938 452.573 47.8542 451.719 48.375C450.865 48.8958 450.167 49.625 449.625 50.5625C449.104 51.5 448.708 52.6042 448.438 53.875C448.188 55.125 448.062 56.5 448.062 58V59.25C448.062 60.6042 448.25 61.8542 448.625 63C449.021 64.1458 449.573 65.1354 450.281 65.9688C451.01 66.8021 451.885 67.4479 452.906 67.9062C453.948 68.3646 455.125 68.5938 456.438 68.5938C458.062 68.5938 459.573 68.2812 460.969 67.6562C462.385 67.0104 463.604 66.0417 464.625 64.75L469 69.5C468.292 70.5208 467.323 71.5 466.094 72.4375C464.885 73.375 463.427 74.1458 461.719 74.75C460.01 75.3333 458.062 75.625 455.875 75.625Z" fill="white"/>
</svg>
