<svg width="352" height="104" viewBox="0 0 352 104" fill="none" xmlns="http://www.w3.org/2000/svg">
<path d="M13.3583 35.7125L76.0917 23.5125L45.3833 1V11.3208L10.3625 25.5792L1 37.9625V66.475L13.3583 70.0417V35.7125Z" fill="white"/>
<path d="M38.2667 88.2417L77.0292 101L101 80.55V19.3833L76.0958 23.5125V77.5458L13.3583 70.0417L38.2667 101V88.2417Z" fill="white"/>
<path d="M148.031 75H138.125L138.188 67.6875H148.031C150.49 67.6875 152.562 67.1354 154.25 66.0312C155.938 64.9062 157.208 63.2708 158.062 61.125C158.938 58.9792 159.375 56.3854 159.375 53.3438V51.125C159.375 48.7917 159.125 46.7396 158.625 44.9688C158.146 43.1979 157.427 41.7083 156.469 40.5C155.51 39.2917 154.333 38.3854 152.938 37.7812C151.542 37.1562 149.938 36.8438 148.125 36.8438H137.938V29.5H148.125C151.167 29.5 153.948 30.0208 156.469 31.0625C159.01 32.0833 161.208 33.5521 163.062 35.4688C164.917 37.3854 166.344 39.6771 167.344 42.3438C168.365 44.9896 168.875 47.9375 168.875 51.1875V53.3438C168.875 56.5729 168.365 59.5208 167.344 62.1875C166.344 64.8542 164.917 67.1458 163.062 69.0625C161.229 70.9583 159.031 72.4271 156.469 73.4688C153.927 74.4896 151.115 75 148.031 75ZM143.438 29.5V75H134.062V29.5H143.438ZM190.688 75.625C188.062 75.625 185.708 75.2083 183.625 74.375C181.542 73.5208 179.771 72.3438 178.312 70.8438C176.875 69.3438 175.771 67.6042 175 65.625C174.229 63.625 173.844 61.5 173.844 59.25V58C173.844 55.4375 174.208 53.0938 174.938 50.9688C175.667 48.8438 176.708 47 178.062 45.4375C179.438 43.875 181.104 42.6771 183.062 41.8438C185.021 40.9896 187.229 40.5625 189.688 40.5625C192.083 40.5625 194.208 40.9583 196.062 41.75C197.917 42.5417 199.469 43.6667 200.719 45.125C201.99 46.5833 202.948 48.3333 203.594 50.375C204.24 52.3958 204.562 54.6458 204.562 57.125V60.875H177.688V54.875H195.719V54.1875C195.719 52.9375 195.49 51.8229 195.031 50.8438C194.594 49.8438 193.927 49.0521 193.031 48.4688C192.135 47.8854 190.99 47.5938 189.594 47.5938C188.406 47.5938 187.385 47.8542 186.531 48.375C185.677 48.8958 184.979 49.625 184.438 50.5625C183.917 51.5 183.521 52.6042 183.25 53.875C183 55.125 182.875 56.5 182.875 58V59.25C182.875 60.6042 183.062 61.8542 183.438 63C183.833 64.1458 184.385 65.1354 185.094 65.9688C185.823 66.8021 186.698 67.4479 187.719 67.9062C188.76 68.3646 189.938 68.5938 191.25 68.5938C192.875 68.5938 194.385 68.2812 195.781 67.6562C197.198 67.0104 198.417 66.0417 199.438 64.75L203.812 69.5C203.104 70.5208 202.135 71.5 200.906 72.4375C199.698 73.375 198.24 74.1458 196.531 74.75C194.823 75.3333 192.875 75.625 190.688 75.625ZM220.75 68.4375L228.25 41.1875H237.656L226.25 75H220.562L220.75 68.4375ZM215.594 41.1875L223.125 68.4688L223.281 75H217.562L206.156 41.1875H215.594ZM279.625 51.1875V53.3438C279.625 56.8021 279.156 59.9062 278.219 62.6562C277.281 65.4062 275.958 67.75 274.25 69.6875C272.542 71.6042 270.5 73.0729 268.125 74.0938C265.771 75.1146 263.156 75.625 260.281 75.625C257.427 75.625 254.812 75.1146 252.438 74.0938C250.083 73.0729 248.042 71.6042 246.312 69.6875C244.583 67.75 243.24 65.4062 242.281 62.6562C241.344 59.9062 240.875 56.8021 240.875 53.3438V51.1875C240.875 47.7083 241.344 44.6042 242.281 41.875C243.219 39.125 244.542 36.7812 246.25 34.8438C247.979 32.9062 250.021 31.4271 252.375 30.4062C254.75 29.3854 257.365 28.875 260.219 28.875C263.094 28.875 265.708 29.3854 268.062 30.4062C270.438 31.4271 272.479 32.9062 274.188 34.8438C275.917 36.7812 277.25 39.125 278.188 41.875C279.146 44.6042 279.625 47.7083 279.625 51.1875ZM270.156 53.3438V51.125C270.156 48.7083 269.938 46.5833 269.5 44.75C269.062 42.9167 268.417 41.375 267.562 40.125C266.708 38.875 265.667 37.9375 264.438 37.3125C263.208 36.6667 261.802 36.3438 260.219 36.3438C258.635 36.3438 257.229 36.6667 256 37.3125C254.792 37.9375 253.76 38.875 252.906 40.125C252.073 41.375 251.438 42.9167 251 44.75C250.562 46.5833 250.344 48.7083 250.344 51.125V53.3438C250.344 55.7396 250.562 57.8646 251 59.7188C251.438 61.5521 252.083 63.1042 252.938 64.375C253.792 65.625 254.833 66.5729 256.062 67.2188C257.292 67.8646 258.698 68.1875 260.281 68.1875C261.865 68.1875 263.271 67.8646 264.5 67.2188C265.729 66.5729 266.76 65.625 267.594 64.375C268.427 63.1042 269.062 61.5521 269.5 59.7188C269.938 57.8646 270.156 55.7396 270.156 53.3438ZM294.812 47.6875V88H285.812V41.1875H294.156L294.812 47.6875ZM316.219 57.7188V58.375C316.219 60.8333 315.927 63.1146 315.344 65.2188C314.781 67.3229 313.948 69.1562 312.844 70.7188C311.74 72.2604 310.365 73.4688 308.719 74.3438C307.094 75.1979 305.219 75.625 303.094 75.625C301.031 75.625 299.24 75.2083 297.719 74.375C296.198 73.5417 294.917 72.375 293.875 70.875C292.854 69.3542 292.031 67.5938 291.406 65.5938C290.781 63.5938 290.302 61.4479 289.969 59.1562V57.4375C290.302 54.9792 290.781 52.7292 291.406 50.6875C292.031 48.625 292.854 46.8438 293.875 45.3438C294.917 43.8229 296.188 42.6458 297.688 41.8125C299.208 40.9792 300.99 40.5625 303.031 40.5625C305.177 40.5625 307.062 40.9688 308.688 41.7812C310.333 42.5938 311.708 43.7604 312.812 45.2812C313.938 46.8021 314.781 48.6146 315.344 50.7188C315.927 52.8229 316.219 55.1562 316.219 57.7188ZM307.188 58.375V57.7188C307.188 56.2812 307.062 54.9583 306.812 53.75C306.583 52.5208 306.208 51.4479 305.688 50.5312C305.188 49.6146 304.521 48.9062 303.688 48.4062C302.875 47.8854 301.885 47.625 300.719 47.625C299.49 47.625 298.438 47.8229 297.562 48.2188C296.708 48.6146 296.01 49.1875 295.469 49.9375C294.927 50.6875 294.521 51.5833 294.25 52.625C293.979 53.6667 293.812 54.8438 293.75 56.1562V60.5C293.854 62.0417 294.146 63.4271 294.625 64.6562C295.104 65.8646 295.844 66.8229 296.844 67.5312C297.844 68.2396 299.156 68.5938 300.781 68.5938C301.969 68.5938 302.969 68.3333 303.781 67.8125C304.594 67.2708 305.25 66.5312 305.75 65.5938C306.271 64.6562 306.635 63.5729 306.844 62.3438C307.073 61.1146 307.188 59.7917 307.188 58.375ZM340.094 65.6562C340.094 65.0104 339.906 64.4271 339.531 63.9062C339.156 63.3854 338.458 62.9062 337.438 62.4688C336.438 62.0104 334.99 61.5938 333.094 61.2188C331.385 60.8438 329.792 60.375 328.312 59.8125C326.854 59.2292 325.583 58.5312 324.5 57.7188C323.438 56.9062 322.604 55.9479 322 54.8438C321.396 53.7188 321.094 52.4375 321.094 51C321.094 49.5833 321.396 48.25 322 47C322.625 45.75 323.51 44.6458 324.656 43.6875C325.823 42.7083 327.24 41.9479 328.906 41.4062C330.594 40.8438 332.49 40.5625 334.594 40.5625C337.531 40.5625 340.052 41.0312 342.156 41.9688C344.281 42.9062 345.906 44.1979 347.031 45.8438C348.177 47.4688 348.75 49.3229 348.75 51.4062H339.75C339.75 50.5312 339.562 49.75 339.188 49.0625C338.833 48.3542 338.271 47.8021 337.5 47.4062C336.75 46.9896 335.771 46.7812 334.562 46.7812C333.562 46.7812 332.698 46.9583 331.969 47.3125C331.24 47.6458 330.677 48.1042 330.281 48.6875C329.906 49.25 329.719 49.875 329.719 50.5625C329.719 51.0833 329.823 51.5521 330.031 51.9688C330.26 52.3646 330.625 52.7292 331.125 53.0625C331.625 53.3958 332.271 53.7083 333.062 54C333.875 54.2708 334.875 54.5208 336.062 54.75C338.5 55.25 340.677 55.9062 342.594 56.7188C344.51 57.5104 346.031 58.5938 347.156 59.9688C348.281 61.3229 348.844 63.1042 348.844 65.3125C348.844 66.8125 348.51 68.1875 347.844 69.4375C347.177 70.6875 346.219 71.7812 344.969 72.7188C343.719 73.6354 342.219 74.3542 340.469 74.875C338.74 75.375 336.792 75.625 334.625 75.625C331.479 75.625 328.812 75.0625 326.625 73.9375C324.458 72.8125 322.812 71.3854 321.688 69.6562C320.583 67.9062 320.031 66.1146 320.031 64.2812H328.562C328.604 65.5104 328.917 66.5 329.5 67.25C330.104 68 330.865 68.5417 331.781 68.875C332.719 69.2083 333.729 69.375 334.812 69.375C335.979 69.375 336.948 69.2188 337.719 68.9062C338.49 68.5729 339.073 68.1354 339.469 67.5938C339.885 67.0312 340.094 66.3854 340.094 65.6562Z" fill="white"/>
</svg>
