<svg width="368" height="96" viewBox="0 0 368 96" fill="none" xmlns="http://www.w3.org/2000/svg">
<path d="M45.58 0.759198L16.0244 14.4468C12.9844 15.8551 11 19.024 11 22.5009V43.1862C11 67.6126 27.2133 90.4546 49 96C70.7867 90.4546 87 67.6126 87 43.1862V22.5009C87 19.024 85.0156 15.8551 81.9756 14.4468L52.42 0.759198C50.2667 -0.253066 47.7333 -0.253066 45.58 0.759198ZM49 47.5434H78.5555C76.3178 65.6761 64.7067 81.8283 49 86.8896V47.5874H19.4444V22.5009L49 8.8133V47.5434Z" fill="white"/>
<path d="M157.75 55.0938C157.75 54.2812 157.625 53.5521 157.375 52.9062C157.146 52.2396 156.708 51.6354 156.062 51.0938C155.417 50.5312 154.51 49.9792 153.344 49.4375C152.177 48.8958 150.667 48.3333 148.812 47.75C146.75 47.0833 144.792 46.3333 142.938 45.5C141.104 44.6667 139.479 43.6979 138.062 42.5938C136.667 41.4688 135.562 40.1667 134.75 38.6875C133.958 37.2083 133.562 35.4896 133.562 33.5312C133.562 31.6354 133.979 29.9167 134.812 28.375C135.646 26.8125 136.812 25.4792 138.312 24.375C139.812 23.25 141.583 22.3854 143.625 21.7812C145.688 21.1771 147.948 20.875 150.406 20.875C153.76 20.875 156.688 21.4792 159.188 22.6875C161.688 23.8958 163.625 25.5521 165 27.6562C166.396 29.7604 167.094 32.1667 167.094 34.875H157.781C157.781 33.5417 157.5 32.375 156.938 31.375C156.396 30.3542 155.562 29.5521 154.438 28.9688C153.333 28.3854 151.938 28.0938 150.25 28.0938C148.625 28.0938 147.271 28.3438 146.188 28.8438C145.104 29.3229 144.292 29.9792 143.75 30.8125C143.208 31.625 142.938 32.5417 142.938 33.5625C142.938 34.3333 143.125 35.0312 143.5 35.6562C143.896 36.2812 144.479 36.8646 145.25 37.4062C146.021 37.9479 146.969 38.4583 148.094 38.9375C149.219 39.4167 150.521 39.8854 152 40.3438C154.479 41.0938 156.656 41.9375 158.531 42.875C160.427 43.8125 162.01 44.8646 163.281 46.0312C164.552 47.1979 165.51 48.5208 166.156 50C166.802 51.4792 167.125 53.1562 167.125 55.0312C167.125 57.0104 166.74 58.7812 165.969 60.3438C165.198 61.9062 164.083 63.2292 162.625 64.3125C161.167 65.3958 159.427 66.2188 157.406 66.7812C155.385 67.3438 153.125 67.625 150.625 67.625C148.375 67.625 146.156 67.3333 143.969 66.75C141.781 66.1458 139.792 65.2396 138 64.0312C136.229 62.8229 134.812 61.2812 133.75 59.4062C132.688 57.5312 132.156 55.3125 132.156 52.75H141.562C141.562 54.1667 141.781 55.3646 142.219 56.3438C142.656 57.3229 143.271 58.1146 144.062 58.7188C144.875 59.3229 145.833 59.7604 146.938 60.0312C148.062 60.3021 149.292 60.4375 150.625 60.4375C152.25 60.4375 153.583 60.2083 154.625 59.75C155.688 59.2917 156.469 58.6562 156.969 57.8438C157.49 57.0312 157.75 56.1146 157.75 55.0938ZM188.5 67.625C185.875 67.625 183.521 67.2083 181.438 66.375C179.354 65.5208 177.583 64.3438 176.125 62.8438C174.688 61.3438 173.583 59.6042 172.812 57.625C172.042 55.625 171.656 53.5 171.656 51.25V50C171.656 47.4375 172.021 45.0938 172.75 42.9688C173.479 40.8438 174.521 39 175.875 37.4375C177.25 35.875 178.917 34.6771 180.875 33.8438C182.833 32.9896 185.042 32.5625 187.5 32.5625C189.896 32.5625 192.021 32.9583 193.875 33.75C195.729 34.5417 197.281 35.6667 198.531 37.125C199.802 38.5833 200.76 40.3333 201.406 42.375C202.052 44.3958 202.375 46.6458 202.375 49.125V52.875H175.5V46.875H193.531V46.1875C193.531 44.9375 193.302 43.8229 192.844 42.8438C192.406 41.8438 191.74 41.0521 190.844 40.4688C189.948 39.8854 188.802 39.5938 187.406 39.5938C186.219 39.5938 185.198 39.8542 184.344 40.375C183.49 40.8958 182.792 41.625 182.25 42.5625C181.729 43.5 181.333 44.6042 181.062 45.875C180.812 47.125 180.688 48.5 180.688 50V51.25C180.688 52.6042 180.875 53.8542 181.25 55C181.646 56.1458 182.198 57.1354 182.906 57.9688C183.635 58.8021 184.51 59.4479 185.531 59.9062C186.573 60.3646 187.75 60.5938 189.062 60.5938C190.688 60.5938 192.198 60.2812 193.594 59.6562C195.01 59.0104 196.229 58.0417 197.25 56.75L201.625 61.5C200.917 62.5208 199.948 63.5 198.719 64.4375C197.51 65.375 196.052 66.1458 194.344 66.75C192.635 67.3333 190.688 67.625 188.5 67.625ZM221.469 60.5938C222.573 60.5938 223.552 60.3854 224.406 59.9688C225.26 59.5312 225.927 58.9271 226.406 58.1562C226.906 57.3646 227.167 56.4375 227.188 55.375H235.656C235.635 57.75 235 59.8646 233.75 61.7188C232.5 63.5521 230.823 65 228.719 66.0625C226.615 67.1042 224.26 67.625 221.656 67.625C219.031 67.625 216.74 67.1875 214.781 66.3125C212.844 65.4375 211.229 64.2292 209.938 62.6875C208.646 61.125 207.677 59.3125 207.031 57.25C206.385 55.1667 206.062 52.9375 206.062 50.5625V49.6562C206.062 47.2604 206.385 45.0312 207.031 42.9688C207.677 40.8854 208.646 39.0729 209.938 37.5312C211.229 35.9688 212.844 34.75 214.781 33.875C216.719 33 218.99 32.5625 221.594 32.5625C224.365 32.5625 226.792 33.0938 228.875 34.1562C230.979 35.2188 232.625 36.7396 233.812 38.7188C235.021 40.6771 235.635 43 235.656 45.6875H227.188C227.167 44.5625 226.927 43.5417 226.469 42.625C226.031 41.7083 225.385 40.9792 224.531 40.4375C223.698 39.875 222.667 39.5938 221.438 39.5938C220.125 39.5938 219.052 39.875 218.219 40.4375C217.385 40.9792 216.74 41.7292 216.281 42.6875C215.823 43.625 215.5 44.6979 215.312 45.9062C215.146 47.0938 215.062 48.3438 215.062 49.6562V50.5625C215.062 51.875 215.146 53.1354 215.312 54.3438C215.479 55.5521 215.792 56.625 216.25 57.5625C216.729 58.5 217.385 59.2396 218.219 59.7812C219.052 60.3229 220.135 60.5938 221.469 60.5938ZM260.875 58.9062V33.1875H269.875V67H261.406L260.875 58.9062ZM261.875 51.9688L264.531 51.9062C264.531 54.1562 264.271 56.25 263.75 58.1875C263.229 60.1042 262.448 61.7708 261.406 63.1875C260.365 64.5833 259.052 65.6771 257.469 66.4688C255.885 67.2396 254.021 67.625 251.875 67.625C250.229 67.625 248.708 67.3958 247.312 66.9375C245.938 66.4583 244.75 65.7188 243.75 64.7188C242.771 63.6979 242 62.3958 241.438 60.8125C240.896 59.2083 240.625 57.2812 240.625 55.0312V33.1875H249.625V55.0938C249.625 56.0938 249.74 56.9375 249.969 57.625C250.219 58.3125 250.562 58.875 251 59.3125C251.438 59.75 251.948 60.0625 252.531 60.25C253.135 60.4375 253.802 60.5312 254.531 60.5312C256.385 60.5312 257.844 60.1562 258.906 59.4062C259.99 58.6562 260.75 57.6354 261.188 56.3438C261.646 55.0312 261.875 53.5729 261.875 51.9688ZM285.75 40.5625V67H276.75V33.1875H285.219L285.75 40.5625ZM295.938 32.9688L295.781 41.3125C295.344 41.25 294.812 41.1979 294.188 41.1562C293.583 41.0938 293.031 41.0625 292.531 41.0625C291.26 41.0625 290.156 41.2292 289.219 41.5625C288.302 41.875 287.531 42.3438 286.906 42.9688C286.302 43.5938 285.844 44.3542 285.531 45.25C285.24 46.1458 285.073 47.1667 285.031 48.3125L283.219 47.75C283.219 45.5625 283.438 43.5521 283.875 41.7188C284.312 39.8646 284.948 38.25 285.781 36.875C286.635 35.5 287.677 34.4375 288.906 33.6875C290.135 32.9375 291.542 32.5625 293.125 32.5625C293.625 32.5625 294.135 32.6042 294.656 32.6875C295.177 32.75 295.604 32.8438 295.938 32.9688ZM309.688 33.1875V67H300.656V33.1875H309.688ZM300.094 24.375C300.094 23.0625 300.552 21.9792 301.469 21.125C302.385 20.2708 303.615 19.8438 305.156 19.8438C306.677 19.8438 307.896 20.2708 308.812 21.125C309.75 21.9792 310.219 23.0625 310.219 24.375C310.219 25.6875 309.75 26.7708 308.812 27.625C307.896 28.4792 306.677 28.9062 305.156 28.9062C303.615 28.9062 302.385 28.4792 301.469 27.625C300.552 26.7708 300.094 25.6875 300.094 24.375ZM333.688 33.1875V39.5625H314V33.1875H333.688ZM318.875 24.8438H327.875V56.8125C327.875 57.7917 328 58.5417 328.25 59.0625C328.521 59.5833 328.917 59.9479 329.438 60.1562C329.958 60.3438 330.615 60.4375 331.406 60.4375C331.969 60.4375 332.469 60.4167 332.906 60.375C333.365 60.3125 333.75 60.25 334.062 60.1875L334.094 66.8125C333.323 67.0625 332.49 67.2604 331.594 67.4062C330.698 67.5521 329.708 67.625 328.625 67.625C326.646 67.625 324.917 67.3021 323.438 66.6562C321.979 65.9896 320.854 64.9271 320.062 63.4688C319.271 62.0104 318.875 60.0938 318.875 57.7188V24.8438ZM348.844 63.1875L357.812 33.1875H367.469L353.875 72.0938C353.583 72.9479 353.188 73.8646 352.688 74.8438C352.208 75.8229 351.552 76.75 350.719 77.625C349.906 78.5208 348.875 79.25 347.625 79.8125C346.396 80.375 344.885 80.6562 343.094 80.6562C342.24 80.6562 341.542 80.6042 341 80.5C340.458 80.3958 339.812 80.25 339.062 80.0625V73.4688C339.292 73.4688 339.531 73.4688 339.781 73.4688C340.031 73.4896 340.271 73.5 340.5 73.5C341.688 73.5 342.656 73.3646 343.406 73.0938C344.156 72.8229 344.76 72.4062 345.219 71.8438C345.677 71.3021 346.042 70.5938 346.312 69.7188L348.844 63.1875ZM345.094 33.1875L352.438 57.6875L353.719 67.2188L347.594 67.875L335.438 33.1875H345.094Z" fill="white"/>
</svg>
