<svg width="320" height="115" viewBox="0 0 320 115" fill="none" xmlns="http://www.w3.org/2000/svg">
<path d="M9.17188 57.365C9.17188 45.4326 9.17187 39.4664 12.1314 35.2358C13.2299 33.6656 14.5953 32.3002 16.1655 31.2017C20.3961 28.2422 26.3585 28.2422 38.2835 28.2422C51.7247 28.2422 67.0855 28.2422 80.0638 28.2422C91.9863 28.2422 97.9475 28.2422 102.178 31.2017C103.749 32.3002 105.113 33.6656 106.212 35.2358C109.172 39.4664 109.172 45.4326 109.172 57.365C109.172 59.3239 109.172 61.2897 109.172 63.2298C109.172 69.6278 109.172 72.8268 108.29 75.4044C106.65 80.2009 102.882 83.9684 98.0863 85.6084C95.5087 86.4897 92.3093 86.4897 85.9106 86.4897C83.5139 86.4897 82.3156 86.4897 81.1921 86.2739C79.1132 85.8745 77.1767 84.933 75.5786 83.5446C74.7149 82.7943 73.9748 81.8518 72.4946 79.967L70.7001 77.6819C65.6374 71.2349 63.1061 68.0115 59.7474 67.7579C59.3643 67.7289 58.9794 67.7289 58.5961 67.7579C55.2375 68.0115 52.7062 71.2349 47.6435 77.6819L45.849 79.967C44.3688 81.8518 43.6287 82.7943 42.765 83.5446C41.167 84.933 39.2304 85.8745 37.1516 86.2739C36.028 86.4897 34.8297 86.4897 32.433 86.4897C26.0343 86.4897 22.835 86.4897 20.2574 85.6084C15.4607 83.9684 11.6932 80.2009 10.0532 75.4044C9.17187 72.8268 9.17188 69.6278 9.17188 63.2298C9.17188 61.2897 9.17188 59.3239 9.17188 57.365Z" stroke="white" stroke-width="7"/>
<path d="M27.7439 52.8229C27.7439 55.5381 29.9449 57.7391 32.66 57.7391C35.3752 57.7391 37.5762 55.5381 37.5762 52.8229C37.5762 50.1078 35.3752 47.9068 32.66 47.9068C29.9449 47.9068 27.7439 50.1078 27.7439 52.8229ZM81.2753 52.8229C81.2753 55.5381 83.4763 57.7391 86.1915 57.7391C88.9066 57.7391 91.1076 55.5381 91.1076 52.8229C91.1076 50.1078 88.9066 47.9068 86.1915 47.9068C83.4763 47.9068 81.2753 50.1078 81.2753 52.8229Z" fill="white" stroke="white" stroke-width="7"/>
<path d="M151.562 43.2812L139.188 81H129.219L146.125 35.5H152.469L151.562 43.2812ZM161.844 81L149.438 43.2812L148.438 35.5H154.844L171.844 81H161.844ZM161.281 64.0625V71.4062H137.25V64.0625H161.281ZM176.062 35.5H193.031C196.51 35.5 199.5 36.0208 202 37.0625C204.521 38.1042 206.458 39.6458 207.812 41.6875C209.167 43.7292 209.844 46.2396 209.844 49.2188C209.844 51.6562 209.427 53.75 208.594 55.5C207.781 57.2292 206.625 58.6771 205.125 59.8438C203.646 60.9896 201.906 61.9062 199.906 62.5938L196.938 64.1562H182.188L182.125 56.8438H193.094C194.74 56.8438 196.104 56.5521 197.188 55.9688C198.271 55.3854 199.083 54.5729 199.625 53.5312C200.188 52.4896 200.469 51.2812 200.469 49.9062C200.469 48.4479 200.198 47.1875 199.656 46.125C199.115 45.0625 198.292 44.25 197.188 43.6875C196.083 43.125 194.698 42.8438 193.031 42.8438H185.438V81H176.062V35.5ZM201.5 81L191.125 60.7188L201.031 60.6562L211.531 80.5625V81H201.5ZM235.938 35.5L219.25 84.9062H212.562L229.25 35.5H235.938ZM257.219 71.5L267.938 35.5H278.375L262.531 81H255.656L257.219 71.5ZM247.344 35.5L258.031 71.5L259.656 81H252.719L236.969 35.5H247.344ZM282.625 35.5H299.594C303.073 35.5 306.062 36.0208 308.562 37.0625C311.083 38.1042 313.021 39.6458 314.375 41.6875C315.729 43.7292 316.406 46.2396 316.406 49.2188C316.406 51.6562 315.99 53.75 315.156 55.5C314.344 57.2292 313.188 58.6771 311.688 59.8438C310.208 60.9896 308.469 61.9062 306.469 62.5938L303.5 64.1562H288.75L288.688 56.8438H299.656C301.302 56.8438 302.667 56.5521 303.75 55.9688C304.833 55.3854 305.646 54.5729 306.188 53.5312C306.75 52.4896 307.031 51.2812 307.031 49.9062C307.031 48.4479 306.76 47.1875 306.219 46.125C305.677 45.0625 304.854 44.25 303.75 43.6875C302.646 43.125 301.26 42.8438 299.594 42.8438H292V81H282.625V35.5ZM308.062 81L297.688 60.7188L307.594 60.6562L318.094 80.5625V81H308.062Z" fill="white"/>
</svg>
