<svg width="310" height="116" viewBox="0 0 310 116" fill="none" xmlns="http://www.w3.org/2000/svg">
<g clip-path="url(#clip0_2_8)">
<path d="M85.3704 34.967C91.3171 34.967 96.918 37.2045 101.13 41.2659C105.337 45.3323 107.665 50.7343 107.665 56.495C107.665 62.2557 105.342 67.6527 101.12 71.7241C96.9231 75.7855 91.3223 78.033 85.3601 78.033C79.3979 78.033 73.8074 75.7955 69.59 71.7241L62.487 65.1461L55.2859 71.8138C53.2278 73.7972 50.7834 75.3679 48.0937 76.4353C45.404 77.5027 42.522 78.0457 39.6139 78.033C36.6838 78.0421 33.781 77.4886 31.0745 76.4046C28.3681 75.3207 25.9119 73.7279 23.849 71.7191C19.6419 67.6676 17.319 62.2557 17.319 56.505C17.319 50.7542 19.6419 45.3572 23.8593 41.2759C25.9245 39.2717 28.3804 37.6822 31.0854 36.5994C33.7904 35.5166 36.6908 34.9617 39.6191 34.967C45.5761 34.967 51.1769 37.2045 55.3892 41.2759L62.487 47.8539L69.6932 41.1762C71.7544 39.196 74.2002 37.6281 76.8905 36.5626C79.5808 35.497 82.4626 34.9548 85.3704 34.967ZM85.3704 25.0003C76.7033 25.0003 68.5937 28.2146 62.487 34.0351C59.4768 31.1529 55.9079 28.8715 51.9842 27.3213C48.0604 25.7711 43.8587 24.9824 39.6191 25.0003C35.3335 24.988 31.0881 25.798 27.1296 27.3833C23.1711 28.9685 19.5784 31.2973 16.5601 34.2344C10.3966 40.1746 7 48.0881 7 56.505C7 64.9218 10.3966 72.8204 16.5601 78.7705C19.5815 81.7047 23.1756 84.0312 27.1346 85.6153C31.0935 87.1995 35.3387 88.0099 39.6242 87.9997C43.8651 88.0181 48.0682 87.2292 51.993 85.6781C55.9178 84.1269 59.4873 81.844 62.4973 78.9599C65.5072 81.8442 69.0767 84.1273 73.0015 85.6785C76.9263 87.2296 81.1295 88.0184 85.3704 87.9997C89.6579 88.0115 93.9051 87.2008 97.8654 85.6148C101.826 84.0287 105.42 81.6989 108.44 78.7606C111.482 75.8469 113.894 72.3785 115.535 68.5569C117.176 64.7354 118.014 60.6369 118 56.5C118.01 52.3614 117.17 48.2619 115.529 44.4385C113.888 40.6151 111.479 37.1435 108.44 34.2245C105.416 31.2917 101.821 28.9665 97.8614 27.3833C93.9017 25.8 89.6563 24.9901 85.3704 25.0003ZM39.6191 52.4087C40.7805 52.4087 41.8181 52.8472 42.7783 53.7591L45.7206 56.49L42.6079 59.3754C41.804 60.111 40.7316 60.5104 39.6242 60.4867C38.5134 60.5125 37.4371 60.113 36.6302 59.3754C36.2366 58.9982 35.9244 58.5495 35.7118 58.055C35.4991 57.5606 35.3902 57.0304 35.3913 56.495C35.3913 55.3937 35.825 54.392 36.6457 53.5997C37.034 53.2198 37.4971 52.9187 38.0077 52.7141C38.5184 52.5096 39.0662 52.4057 39.6191 52.4087ZM39.6191 47.4253C37.1103 47.4253 34.7564 48.3672 32.9858 50.0814C32.109 50.9211 31.4135 51.9203 30.9395 53.0211C30.4654 54.122 30.2223 55.3028 30.2241 56.495C30.2241 58.9069 31.1997 61.1843 32.9755 62.8986C34.7512 64.6129 37.1826 65.47 39.6191 65.47C42.0958 65.4955 44.4817 64.5706 46.2523 62.8986L53.1643 56.495L46.3452 50.1662C45.4705 49.2989 44.4246 48.6096 43.2694 48.1388C42.1142 47.6681 40.873 47.4255 39.6191 47.4253ZM85.3704 52.4934C86.4718 52.4648 87.5403 52.857 88.3438 53.5847C89.1594 54.3771 89.593 55.3737 89.593 56.485C89.593 57.5963 89.1646 58.588 88.3386 59.3803C87.9489 59.7476 87.4879 60.037 86.9821 60.232C86.4763 60.4269 85.9356 60.5236 85.3911 60.5165C84.797 60.5171 84.2088 60.4022 83.6617 60.1787C83.1145 59.9553 82.6195 59.6278 82.2061 59.2159L79.2585 56.485L82.3713 53.6047C83.1791 52.8654 84.2577 52.4657 85.3704 52.4934ZM85.3704 47.51C82.9339 47.51 80.5026 48.3672 78.7269 50.0814L71.8097 56.485L78.6339 62.8139C79.5237 63.6691 80.5794 64.3465 81.7406 64.8074C82.9019 65.2683 84.1459 65.5036 85.4014 65.4999C86.6311 65.5098 87.8506 65.2837 88.989 64.8348C90.1274 64.3858 91.1621 63.7229 92.0328 62.8846C92.9036 62.0463 93.5931 61.0493 94.0613 59.9516C94.5295 58.8538 94.7671 57.6772 94.7602 56.49C94.7638 55.2989 94.523 54.1189 94.0516 53.0181C93.5803 51.9173 92.8877 50.9175 92.014 50.0765C90.2366 48.4089 87.8488 47.4865 85.3704 47.51Z" fill="white"/>
</g>
<path d="M172.438 63.9062H181.781C181.594 66.9688 180.75 69.6875 179.25 72.0625C177.771 74.4375 175.698 76.2917 173.031 77.625C170.385 78.9583 167.198 79.625 163.469 79.625C160.552 79.625 157.938 79.125 155.625 78.125C153.312 77.1042 151.333 75.6458 149.688 73.75C148.062 71.8542 146.823 69.5625 145.969 66.875C145.115 64.1875 144.688 61.1771 144.688 57.8438V54.6875C144.688 51.3542 145.125 48.3438 146 45.6562C146.896 42.9479 148.167 40.6458 149.812 38.75C151.479 36.8542 153.469 35.3958 155.781 34.375C158.094 33.3542 160.677 32.8438 163.531 32.8438C167.323 32.8438 170.521 33.5312 173.125 34.9062C175.75 36.2812 177.781 38.1771 179.219 40.5938C180.677 43.0104 181.552 45.7604 181.844 48.8438H172.469C172.365 47.0104 172 45.4583 171.375 44.1875C170.75 42.8958 169.802 41.9271 168.531 41.2812C167.281 40.6146 165.615 40.2812 163.531 40.2812C161.969 40.2812 160.604 40.5729 159.438 41.1562C158.271 41.7396 157.292 42.625 156.5 43.8125C155.708 45 155.115 46.5 154.719 48.3125C154.344 50.1042 154.156 52.2083 154.156 54.625V57.8438C154.156 60.1979 154.333 62.2708 154.688 64.0625C155.042 65.8333 155.583 67.3333 156.312 68.5625C157.062 69.7708 158.021 70.6875 159.188 71.3125C160.375 71.9167 161.802 72.2188 163.469 72.2188C165.427 72.2188 167.042 71.9062 168.312 71.2812C169.583 70.6562 170.552 69.7292 171.219 68.5C171.906 67.2708 172.312 65.7396 172.438 63.9062ZM201.906 79H192L192.062 71.6875H201.906C204.365 71.6875 206.438 71.1354 208.125 70.0312C209.812 68.9062 211.083 67.2708 211.938 65.125C212.812 62.9792 213.25 60.3854 213.25 57.3438V55.125C213.25 52.7917 213 50.7396 212.5 48.9688C212.021 47.1979 211.302 45.7083 210.344 44.5C209.385 43.2917 208.208 42.3854 206.812 41.7812C205.417 41.1562 203.812 40.8438 202 40.8438H191.812V33.5H202C205.042 33.5 207.823 34.0208 210.344 35.0625C212.885 36.0833 215.083 37.5521 216.938 39.4688C218.792 41.3854 220.219 43.6771 221.219 46.3438C222.24 48.9896 222.75 51.9375 222.75 55.1875V57.3438C222.75 60.5729 222.24 63.5208 221.219 66.1875C220.219 68.8542 218.792 71.1458 216.938 73.0625C215.104 74.9583 212.906 76.4271 210.344 77.4688C207.802 78.4896 204.99 79 201.906 79ZM197.312 33.5V79H187.938V33.5H197.312ZM248.438 33.5L231.75 82.9062H225.062L241.75 33.5H248.438ZM279.688 63.9062H289.031C288.844 66.9688 288 69.6875 286.5 72.0625C285.021 74.4375 282.948 76.2917 280.281 77.625C277.635 78.9583 274.448 79.625 270.719 79.625C267.802 79.625 265.188 79.125 262.875 78.125C260.562 77.1042 258.583 75.6458 256.938 73.75C255.312 71.8542 254.073 69.5625 253.219 66.875C252.365 64.1875 251.938 61.1771 251.938 57.8438V54.6875C251.938 51.3542 252.375 48.3438 253.25 45.6562C254.146 42.9479 255.417 40.6458 257.062 38.75C258.729 36.8542 260.719 35.3958 263.031 34.375C265.344 33.3542 267.927 32.8438 270.781 32.8438C274.573 32.8438 277.771 33.5312 280.375 34.9062C283 36.2812 285.031 38.1771 286.469 40.5938C287.927 43.0104 288.802 45.7604 289.094 48.8438H279.719C279.615 47.0104 279.25 45.4583 278.625 44.1875C278 42.8958 277.052 41.9271 275.781 41.2812C274.531 40.6146 272.865 40.2812 270.781 40.2812C269.219 40.2812 267.854 40.5729 266.688 41.1562C265.521 41.7396 264.542 42.625 263.75 43.8125C262.958 45 262.365 46.5 261.969 48.3125C261.594 50.1042 261.406 52.2083 261.406 54.625V57.8438C261.406 60.1979 261.583 62.2708 261.938 64.0625C262.292 65.8333 262.833 67.3333 263.562 68.5625C264.312 69.7708 265.271 70.6875 266.438 71.3125C267.625 71.9167 269.052 72.2188 270.719 72.2188C272.677 72.2188 274.292 71.9062 275.562 71.2812C276.833 70.6562 277.802 69.7292 278.469 68.5C279.156 67.2708 279.562 65.7396 279.688 63.9062ZM305.156 33.5V79H295.812V33.5H305.156Z" fill="white"/>
<defs>
<clipPath id="clip0_2_8">
<rect width="120" height="116" fill="white"/>
</clipPath>
</defs>
</svg>
