<svg width="303" height="104" viewBox="0 0 303 104" fill="none" xmlns="http://www.w3.org/2000/svg">
<g clip-path="url(#clip0_2_46)">
<path d="M88.5991 8H24.0416C15.7472 8 9 14.4883 9 22.4635V84.5365C9 92.5117 15.7479 99 24.0416 99H88.5984C96.8928 99 103.64 92.5117 103.64 84.5365V22.4635C103.64 14.4883 96.8921 8 88.5984 8H88.5991ZM24.0416 14.0667H88.5984C93.4138 14.0667 97.3306 17.8335 97.3306 22.4635V26.3893H15.3094V22.4635C15.3094 17.8335 19.2262 14.0667 24.0416 14.0667ZM88.5991 92.9333H24.0416C19.2262 92.9333 15.3094 89.1665 15.3094 84.5365V32.4559H97.3313V84.5371C97.3313 89.1672 93.4144 92.9339 88.5991 92.9339V92.9333Z" fill="white"/>
<path d="M28.5591 20.2274C28.4311 16.2185 22.3785 16.2179 22.2498 20.2274C22.3778 24.2362 28.4304 24.2368 28.5591 20.2274ZM38.0232 20.2274C37.8951 16.2185 31.8425 16.2179 31.7138 20.2274C31.8419 24.2362 37.8945 24.2368 38.0232 20.2274ZM47.4873 20.2274C47.3592 16.2185 41.3066 16.2179 41.1779 20.2274C41.306 24.2362 47.3586 24.2368 47.4873 20.2274ZM31.0305 38.3746C29.2885 38.3746 27.8758 39.7323 27.8758 41.4079V83.9795C27.8758 85.6551 29.2885 87.0129 31.0305 87.0129C32.7725 87.0129 34.1852 85.6551 34.1852 83.9795V41.4079C34.1852 39.7323 32.7725 38.3746 31.0305 38.3746ZM47.8904 45.7146C46.1484 45.7146 44.7357 47.0724 44.7357 48.748V83.9795C44.7357 85.6551 46.1484 87.0129 47.8904 87.0129C49.6325 87.0129 51.0451 85.6551 51.0451 83.9795V48.748C51.0451 47.0724 49.6325 45.7146 47.8904 45.7146ZM64.7504 57.4585C63.0083 57.4585 61.5957 58.8162 61.5957 60.4918V83.9795C61.5957 85.6551 63.0083 87.0129 64.7504 87.0129C66.4924 87.0129 67.905 85.6551 67.905 83.9795V60.4918C67.905 58.8162 66.4924 57.4585 64.7504 57.4585ZM81.6103 63.3304C79.8682 63.3304 78.4556 64.6881 78.4556 66.3638V83.9795C78.4556 85.6551 79.8682 87.0129 81.6103 87.0129C83.3523 87.0129 84.7649 85.6551 84.7649 83.9795V66.3638C84.7649 64.6881 83.3523 63.3304 81.6103 63.3304Z" fill="white"/>
</g>
<path d="M164.188 30.5H173.531V60.5625C173.531 64.0625 172.781 67.0104 171.281 69.4062C169.802 71.8021 167.75 73.6042 165.125 74.8125C162.521 76.0208 159.521 76.625 156.125 76.625C152.729 76.625 149.708 76.0208 147.062 74.8125C144.438 73.6042 142.375 71.8021 140.875 69.4062C139.396 67.0104 138.656 64.0625 138.656 60.5625V30.5H148.031V60.5625C148.031 62.6042 148.354 64.2708 149 65.5625C149.646 66.8542 150.573 67.8021 151.781 68.4062C153.01 69.0104 154.458 69.3125 156.125 69.3125C157.833 69.3125 159.281 69.0104 160.469 68.4062C161.677 67.8021 162.594 66.8542 163.219 65.5625C163.865 64.2708 164.188 62.6042 164.188 60.5625V30.5ZM191.219 30.5V76H181.875V30.5H191.219ZM218.875 30.5L202.188 79.9062H195.5L212.188 30.5H218.875ZM248.875 30.5H258.219V60.5625C258.219 64.0625 257.469 67.0104 255.969 69.4062C254.49 71.8021 252.438 73.6042 249.812 74.8125C247.208 76.0208 244.208 76.625 240.812 76.625C237.417 76.625 234.396 76.0208 231.75 74.8125C229.125 73.6042 227.062 71.8021 225.562 69.4062C224.083 67.0104 223.344 64.0625 223.344 60.5625V30.5H232.719V60.5625C232.719 62.6042 233.042 64.2708 233.688 65.5625C234.333 66.8542 235.26 67.8021 236.469 68.4062C237.698 69.0104 239.146 69.3125 240.812 69.3125C242.521 69.3125 243.969 69.0104 245.156 68.4062C246.365 67.8021 247.281 66.8542 247.906 65.5625C248.552 64.2708 248.875 62.6042 248.875 60.5625V30.5ZM273.656 30.5L282.219 46.375L290.781 30.5H301.5L288.281 53.0625L301.844 76H291.031L282.219 59.8125L273.406 76H262.531L276.125 53.0625L262.875 30.5H273.656Z" fill="white"/>
<defs>
<clipPath id="clip0_2_46">
<rect width="104" height="104" fill="white"/>
</clipPath>
</defs>
</svg>
