<svg width="523" height="104" viewBox="0 0 523 104" fill="none" xmlns="http://www.w3.org/2000/svg">
<g clip-path="url(#clip0_2_16)">
<path d="M95.7576 52.0118C95.7573 46.5397 99.1802 41.8692 104 40.0166C102.745 34.7621 100.665 29.7399 97.8375 25.1367C96.191 25.8679 94.4094 26.2453 92.6078 26.2445C89.3211 26.2445 86.0354 24.9916 83.5268 22.4835C79.6562 18.613 78.7747 12.8883 80.8758 8.16847C76.2738 5.33903 71.2524 3.25703 65.9984 2C64.1487 6.82525 59.4758 10.2526 54 10.2526C48.5247 10.2526 43.8518 6.82525 42.0018 2C36.7479 3.25701 31.7266 5.33911 27.1247 8.16873C29.2258 12.888 28.3443 18.6125 24.4734 22.4838C21.9654 24.9919 18.6792 26.245 15.3924 26.245C13.5908 26.2457 11.8091 25.8682 10.1625 25.1369C7.33491 29.74 5.25493 34.7622 4 40.0166C8.82005 41.8686 12.2427 46.5397 12.2427 52.0118C12.2427 57.4827 8.82292 62.1514 4.00573 64.005C5.26338 69.2589 7.34581 74.2802 10.1755 78.8821C11.8184 78.1547 13.5954 77.7793 15.3922 77.78C18.6792 77.78 21.9648 79.0331 24.4732 81.5412C28.338 85.406 29.2229 91.1196 27.1333 95.8352C31.7356 98.6634 36.7571 100.744 42.0109 102C43.8672 97.1878 48.5333 93.7719 54 93.7719C59.4667 93.7719 64.1328 97.1872 65.9888 102C71.2429 100.744 76.2646 98.6632 80.8669 95.8346C78.7776 91.1196 79.6622 85.406 83.5274 81.5412C86.0349 79.0329 89.3211 77.7797 92.6076 77.7797C94.3878 77.7797 96.1675 78.1472 97.8245 78.8821C100.654 74.2802 102.737 69.2589 103.994 64.005C99.1771 62.1511 95.7576 57.4821 95.7576 52.0118ZM54.2344 72.8071C42.6979 72.8071 33.401 63.4582 33.401 51.9738C33.401 40.4892 42.6979 31.1405 54.2344 31.1405C65.7706 31.1405 75.0677 40.4892 75.0677 51.9738C75.0677 63.4582 65.7706 72.8071 54.2344 72.8071Z" fill="white"/>
</g>
<path d="M171.438 51.1875V53.3438C171.438 56.8021 170.969 59.9062 170.031 62.6562C169.094 65.4062 167.771 67.75 166.062 69.6875C164.354 71.6042 162.312 73.0729 159.938 74.0938C157.583 75.1146 154.969 75.625 152.094 75.625C149.24 75.625 146.625 75.1146 144.25 74.0938C141.896 73.0729 139.854 71.6042 138.125 69.6875C136.396 67.75 135.052 65.4062 134.094 62.6562C133.156 59.9062 132.688 56.8021 132.688 53.3438V51.1875C132.688 47.7083 133.156 44.6042 134.094 41.875C135.031 39.125 136.354 36.7812 138.062 34.8438C139.792 32.9062 141.833 31.4271 144.188 30.4062C146.562 29.3854 149.177 28.875 152.031 28.875C154.906 28.875 157.521 29.3854 159.875 30.4062C162.25 31.4271 164.292 32.9062 166 34.8438C167.729 36.7812 169.062 39.125 170 41.875C170.958 44.6042 171.438 47.7083 171.438 51.1875ZM161.969 53.3438V51.125C161.969 48.7083 161.75 46.5833 161.312 44.75C160.875 42.9167 160.229 41.375 159.375 40.125C158.521 38.875 157.479 37.9375 156.25 37.3125C155.021 36.6667 153.615 36.3438 152.031 36.3438C150.448 36.3438 149.042 36.6667 147.812 37.3125C146.604 37.9375 145.573 38.875 144.719 40.125C143.885 41.375 143.25 42.9167 142.812 44.75C142.375 46.5833 142.156 48.7083 142.156 51.125V53.3438C142.156 55.7396 142.375 57.8646 142.812 59.7188C143.25 61.5521 143.896 63.1042 144.75 64.375C145.604 65.625 146.646 66.5729 147.875 67.2188C149.104 67.8646 150.51 68.1875 152.094 68.1875C153.677 68.1875 155.083 67.8646 156.312 67.2188C157.542 66.5729 158.573 65.625 159.406 64.375C160.24 63.1042 160.875 61.5521 161.312 59.7188C161.75 57.8646 161.969 55.7396 161.969 53.3438ZM186.625 48.5625V75H177.625V41.1875H186.094L186.625 48.5625ZM196.812 40.9688L196.656 49.3125C196.219 49.25 195.688 49.1979 195.062 49.1562C194.458 49.0938 193.906 49.0625 193.406 49.0625C192.135 49.0625 191.031 49.2292 190.094 49.5625C189.177 49.875 188.406 50.3438 187.781 50.9688C187.177 51.5938 186.719 52.3542 186.406 53.25C186.115 54.1458 185.948 55.1667 185.906 56.3125L184.094 55.75C184.094 53.5625 184.312 51.5521 184.75 49.7188C185.188 47.8646 185.823 46.25 186.656 44.875C187.51 43.5 188.552 42.4375 189.781 41.6875C191.01 40.9375 192.417 40.5625 194 40.5625C194.5 40.5625 195.01 40.6042 195.531 40.6875C196.052 40.75 196.479 40.8438 196.812 40.9688ZM214.406 68.5938C215.51 68.5938 216.49 68.3854 217.344 67.9688C218.198 67.5312 218.865 66.9271 219.344 66.1562C219.844 65.3646 220.104 64.4375 220.125 63.375H228.594C228.573 65.75 227.938 67.8646 226.688 69.7188C225.438 71.5521 223.76 73 221.656 74.0625C219.552 75.1042 217.198 75.625 214.594 75.625C211.969 75.625 209.677 75.1875 207.719 74.3125C205.781 73.4375 204.167 72.2292 202.875 70.6875C201.583 69.125 200.615 67.3125 199.969 65.25C199.323 63.1667 199 60.9375 199 58.5625V57.6562C199 55.2604 199.323 53.0312 199.969 50.9688C200.615 48.8854 201.583 47.0729 202.875 45.5312C204.167 43.9688 205.781 42.75 207.719 41.875C209.656 41 211.927 40.5625 214.531 40.5625C217.302 40.5625 219.729 41.0938 221.812 42.1562C223.917 43.2188 225.562 44.7396 226.75 46.7188C227.958 48.6771 228.573 51 228.594 53.6875H220.125C220.104 52.5625 219.865 51.5417 219.406 50.625C218.969 49.7083 218.323 48.9792 217.469 48.4375C216.635 47.875 215.604 47.5938 214.375 47.5938C213.062 47.5938 211.99 47.875 211.156 48.4375C210.323 48.9792 209.677 49.7292 209.219 50.6875C208.76 51.625 208.438 52.6979 208.25 53.9062C208.083 55.0938 208 56.3438 208 57.6562V58.5625C208 59.875 208.083 61.1354 208.25 62.3438C208.417 63.5521 208.729 64.625 209.188 65.5625C209.667 66.5 210.323 67.2396 211.156 67.7812C211.99 68.3229 213.073 68.5938 214.406 68.5938ZM242.594 27V75H233.594V27H242.594ZM241.312 56.9062H238.844C238.865 54.5521 239.177 52.3854 239.781 50.4062C240.385 48.4062 241.25 46.6771 242.375 45.2188C243.5 43.7396 244.844 42.5938 246.406 41.7812C247.99 40.9688 249.74 40.5625 251.656 40.5625C253.323 40.5625 254.833 40.8021 256.188 41.2812C257.562 41.7396 258.74 42.4896 259.719 43.5312C260.719 44.5521 261.49 45.8958 262.031 47.5625C262.573 49.2292 262.844 51.25 262.844 53.625V75H253.781V53.5625C253.781 52.0625 253.562 50.8854 253.125 50.0312C252.708 49.1562 252.094 48.5417 251.281 48.1875C250.49 47.8125 249.51 47.625 248.344 47.625C247.052 47.625 245.948 47.8646 245.031 48.3438C244.135 48.8229 243.417 49.4896 242.875 50.3438C242.333 51.1771 241.938 52.1562 241.688 53.2812C241.438 54.4062 241.312 55.6146 241.312 56.9062ZM285.25 75.625C282.625 75.625 280.271 75.2083 278.188 74.375C276.104 73.5208 274.333 72.3438 272.875 70.8438C271.438 69.3438 270.333 67.6042 269.562 65.625C268.792 63.625 268.406 61.5 268.406 59.25V58C268.406 55.4375 268.771 53.0938 269.5 50.9688C270.229 48.8438 271.271 47 272.625 45.4375C274 43.875 275.667 42.6771 277.625 41.8438C279.583 40.9896 281.792 40.5625 284.25 40.5625C286.646 40.5625 288.771 40.9583 290.625 41.75C292.479 42.5417 294.031 43.6667 295.281 45.125C296.552 46.5833 297.51 48.3333 298.156 50.375C298.802 52.3958 299.125 54.6458 299.125 57.125V60.875H272.25V54.875H290.281V54.1875C290.281 52.9375 290.052 51.8229 289.594 50.8438C289.156 49.8438 288.49 49.0521 287.594 48.4688C286.698 47.8854 285.552 47.5938 284.156 47.5938C282.969 47.5938 281.948 47.8542 281.094 48.375C280.24 48.8958 279.542 49.625 279 50.5625C278.479 51.5 278.083 52.6042 277.812 53.875C277.562 55.125 277.438 56.5 277.438 58V59.25C277.438 60.6042 277.625 61.8542 278 63C278.396 64.1458 278.948 65.1354 279.656 65.9688C280.385 66.8021 281.26 67.4479 282.281 67.9062C283.323 68.3646 284.5 68.5938 285.812 68.5938C287.438 68.5938 288.948 68.2812 290.344 67.6562C291.76 67.0104 292.979 66.0417 294 64.75L298.375 69.5C297.667 70.5208 296.698 71.5 295.469 72.4375C294.26 73.375 292.802 74.1458 291.094 74.75C289.385 75.3333 287.438 75.625 285.25 75.625ZM322.531 65.6562C322.531 65.0104 322.344 64.4271 321.969 63.9062C321.594 63.3854 320.896 62.9062 319.875 62.4688C318.875 62.0104 317.427 61.5938 315.531 61.2188C313.823 60.8438 312.229 60.375 310.75 59.8125C309.292 59.2292 308.021 58.5312 306.938 57.7188C305.875 56.9062 305.042 55.9479 304.438 54.8438C303.833 53.7188 303.531 52.4375 303.531 51C303.531 49.5833 303.833 48.25 304.438 47C305.062 45.75 305.948 44.6458 307.094 43.6875C308.26 42.7083 309.677 41.9479 311.344 41.4062C313.031 40.8438 314.927 40.5625 317.031 40.5625C319.969 40.5625 322.49 41.0312 324.594 41.9688C326.719 42.9062 328.344 44.1979 329.469 45.8438C330.615 47.4688 331.188 49.3229 331.188 51.4062H322.188C322.188 50.5312 322 49.75 321.625 49.0625C321.271 48.3542 320.708 47.8021 319.938 47.4062C319.188 46.9896 318.208 46.7812 317 46.7812C316 46.7812 315.135 46.9583 314.406 47.3125C313.677 47.6458 313.115 48.1042 312.719 48.6875C312.344 49.25 312.156 49.875 312.156 50.5625C312.156 51.0833 312.26 51.5521 312.469 51.9688C312.698 52.3646 313.062 52.7292 313.562 53.0625C314.062 53.3958 314.708 53.7083 315.5 54C316.312 54.2708 317.312 54.5208 318.5 54.75C320.938 55.25 323.115 55.9062 325.031 56.7188C326.948 57.5104 328.469 58.5938 329.594 59.9688C330.719 61.3229 331.281 63.1042 331.281 65.3125C331.281 66.8125 330.948 68.1875 330.281 69.4375C329.615 70.6875 328.656 71.7812 327.406 72.7188C326.156 73.6354 324.656 74.3542 322.906 74.875C321.177 75.375 319.229 75.625 317.062 75.625C313.917 75.625 311.25 75.0625 309.062 73.9375C306.896 72.8125 305.25 71.3854 304.125 69.6562C303.021 67.9062 302.469 66.1146 302.469 64.2812H311C311.042 65.5104 311.354 66.5 311.938 67.25C312.542 68 313.302 68.5417 314.219 68.875C315.156 69.2083 316.167 69.375 317.25 69.375C318.417 69.375 319.385 69.2188 320.156 68.9062C320.927 68.5729 321.51 68.1354 321.906 67.5938C322.323 67.0312 322.531 66.3854 322.531 65.6562ZM353.688 41.1875V47.5625H334V41.1875H353.688ZM338.875 32.8438H347.875V64.8125C347.875 65.7917 348 66.5417 348.25 67.0625C348.521 67.5833 348.917 67.9479 349.438 68.1562C349.958 68.3438 350.615 68.4375 351.406 68.4375C351.969 68.4375 352.469 68.4167 352.906 68.375C353.365 68.3125 353.75 68.25 354.062 68.1875L354.094 74.8125C353.323 75.0625 352.49 75.2604 351.594 75.4062C350.698 75.5521 349.708 75.625 348.625 75.625C346.646 75.625 344.917 75.3021 343.438 74.6562C341.979 73.9896 340.854 72.9271 340.062 71.4688C339.271 70.0104 338.875 68.0938 338.875 65.7188V32.8438ZM367.812 48.5625V75H358.812V41.1875H367.281L367.812 48.5625ZM378 40.9688L377.844 49.3125C377.406 49.25 376.875 49.1979 376.25 49.1562C375.646 49.0938 375.094 49.0625 374.594 49.0625C373.323 49.0625 372.219 49.2292 371.281 49.5625C370.365 49.875 369.594 50.3438 368.969 50.9688C368.365 51.5938 367.906 52.3542 367.594 53.25C367.302 54.1458 367.135 55.1667 367.094 56.3125L365.281 55.75C365.281 53.5625 365.5 51.5521 365.938 49.7188C366.375 47.8646 367.01 46.25 367.844 44.875C368.698 43.5 369.74 42.4375 370.969 41.6875C372.198 40.9375 373.604 40.5625 375.188 40.5625C375.688 40.5625 376.198 40.6042 376.719 40.6875C377.24 40.75 377.667 40.8438 378 40.9688ZM399.438 67.375V52.3125C399.438 51.2292 399.26 50.3021 398.906 49.5312C398.552 48.7396 398 48.125 397.25 47.6875C396.521 47.25 395.573 47.0312 394.406 47.0312C393.406 47.0312 392.542 47.2083 391.812 47.5625C391.083 47.8958 390.521 48.3854 390.125 49.0312C389.729 49.6562 389.531 50.3958 389.531 51.25H380.531C380.531 49.8125 380.865 48.4479 381.531 47.1562C382.198 45.8646 383.167 44.7292 384.438 43.75C385.708 42.75 387.219 41.9688 388.969 41.4062C390.74 40.8438 392.719 40.5625 394.906 40.5625C397.531 40.5625 399.865 41 401.906 41.875C403.948 42.75 405.552 44.0625 406.719 45.8125C407.906 47.5625 408.5 49.75 408.5 52.375V66.8438C408.5 68.6979 408.615 70.2188 408.844 71.4062C409.073 72.5729 409.406 73.5938 409.844 74.4688V75H400.75C400.312 74.0833 399.979 72.9375 399.75 71.5625C399.542 70.1667 399.438 68.7708 399.438 67.375ZM400.625 54.4062L400.688 59.5H395.656C394.469 59.5 393.438 59.6354 392.562 59.9062C391.688 60.1771 390.969 60.5625 390.406 61.0625C389.844 61.5417 389.427 62.1042 389.156 62.75C388.906 63.3958 388.781 64.1042 388.781 64.875C388.781 65.6458 388.958 66.3438 389.312 66.9688C389.667 67.5729 390.177 68.0521 390.844 68.4062C391.51 68.7396 392.292 68.9062 393.188 68.9062C394.542 68.9062 395.719 68.6354 396.719 68.0938C397.719 67.5521 398.49 66.8854 399.031 66.0938C399.594 65.3021 399.885 64.5521 399.906 63.8438L402.281 67.6562C401.948 68.5104 401.49 69.3958 400.906 70.3125C400.344 71.2292 399.625 72.0938 398.75 72.9062C397.875 73.6979 396.823 74.3542 395.594 74.875C394.365 75.375 392.906 75.625 391.219 75.625C389.073 75.625 387.125 75.1979 385.375 74.3438C383.646 73.4688 382.271 72.2708 381.25 70.75C380.25 69.2083 379.75 67.4583 379.75 65.5C379.75 63.7292 380.083 62.1562 380.75 60.7812C381.417 59.4062 382.396 58.25 383.688 57.3125C385 56.3542 386.635 55.6354 388.594 55.1562C390.552 54.6562 392.823 54.4062 395.406 54.4062H400.625ZM432 41.1875V47.5625H412.312V41.1875H432ZM417.188 32.8438H426.188V64.8125C426.188 65.7917 426.312 66.5417 426.562 67.0625C426.833 67.5833 427.229 67.9479 427.75 68.1562C428.271 68.3438 428.927 68.4375 429.719 68.4375C430.281 68.4375 430.781 68.4167 431.219 68.375C431.677 68.3125 432.062 68.25 432.375 68.1875L432.406 74.8125C431.635 75.0625 430.802 75.2604 429.906 75.4062C429.01 75.5521 428.021 75.625 426.938 75.625C424.958 75.625 423.229 75.3021 421.75 74.6562C420.292 73.9896 419.167 72.9271 418.375 71.4688C417.583 70.0104 417.188 68.0938 417.188 65.7188V32.8438ZM446.625 41.1875V75H437.594V41.1875H446.625ZM437.031 32.375C437.031 31.0625 437.49 29.9792 438.406 29.125C439.323 28.2708 440.552 27.8438 442.094 27.8438C443.615 27.8438 444.833 28.2708 445.75 29.125C446.688 29.9792 447.156 31.0625 447.156 32.375C447.156 33.6875 446.688 34.7708 445.75 35.625C444.833 36.4792 443.615 36.9062 442.094 36.9062C440.552 36.9062 439.323 36.4792 438.406 35.625C437.49 34.7708 437.031 33.6875 437.031 32.375ZM452.625 58.4375V57.7812C452.625 55.3021 452.979 53.0208 453.688 50.9375C454.396 48.8333 455.427 47.0104 456.781 45.4688C458.135 43.9271 459.802 42.7292 461.781 41.875C463.76 41 466.031 40.5625 468.594 40.5625C471.156 40.5625 473.438 41 475.438 41.875C477.438 42.7292 479.115 43.9271 480.469 45.4688C481.844 47.0104 482.885 48.8333 483.594 50.9375C484.302 53.0208 484.656 55.3021 484.656 57.7812V58.4375C484.656 60.8958 484.302 63.1771 483.594 65.2812C482.885 67.3646 481.844 69.1875 480.469 70.75C479.115 72.2917 477.448 73.4896 475.469 74.3438C473.49 75.1979 471.219 75.625 468.656 75.625C466.094 75.625 463.812 75.1979 461.812 74.3438C459.833 73.4896 458.156 72.2917 456.781 70.75C455.427 69.1875 454.396 67.3646 453.688 65.2812C452.979 63.1771 452.625 60.8958 452.625 58.4375ZM461.625 57.7812V58.4375C461.625 59.8542 461.75 61.1771 462 62.4062C462.25 63.6354 462.646 64.7188 463.188 65.6562C463.75 66.5729 464.479 67.2917 465.375 67.8125C466.271 68.3333 467.365 68.5938 468.656 68.5938C469.906 68.5938 470.979 68.3333 471.875 67.8125C472.771 67.2917 473.49 66.5729 474.031 65.6562C474.573 64.7188 474.969 63.6354 475.219 62.4062C475.49 61.1771 475.625 59.8542 475.625 58.4375V57.7812C475.625 56.4062 475.49 55.1146 475.219 53.9062C474.969 52.6771 474.562 51.5938 474 50.6562C473.458 49.6979 472.74 48.9479 471.844 48.4062C470.948 47.8646 469.865 47.5938 468.594 47.5938C467.323 47.5938 466.24 47.8646 465.344 48.4062C464.469 48.9479 463.75 49.6979 463.188 50.6562C462.646 51.5938 462.25 52.6771 462 53.9062C461.75 55.1146 461.625 56.4062 461.625 57.7812ZM499 48.4062V75H490V41.1875H498.438L499 48.4062ZM497.688 56.9062H495.25C495.25 54.4062 495.573 52.1562 496.219 50.1562C496.865 48.1354 497.771 46.4167 498.938 45C500.104 43.5625 501.49 42.4688 503.094 41.7188C504.719 40.9479 506.531 40.5625 508.531 40.5625C510.115 40.5625 511.562 40.7917 512.875 41.25C514.188 41.7083 515.312 42.4375 516.25 43.4375C517.208 44.4375 517.938 45.7604 518.438 47.4062C518.958 49.0521 519.219 51.0625 519.219 53.4375V75H510.156V53.4062C510.156 51.9062 509.948 50.7396 509.531 49.9062C509.115 49.0729 508.5 48.4896 507.688 48.1562C506.896 47.8021 505.917 47.625 504.75 47.625C503.542 47.625 502.49 47.8646 501.594 48.3438C500.719 48.8229 499.99 49.4896 499.406 50.3438C498.844 51.1771 498.417 52.1562 498.125 53.2812C497.833 54.4062 497.688 55.6146 497.688 56.9062Z" fill="white"/>
<defs>
<clipPath id="clip0_2_16">
<rect width="104" height="104" fill="white"/>
</clipPath>
</defs>
</svg>
